<?xml version="1.0" encoding="utf-8"?>
<!-- Generator: Adobe Illustrator 16.0.0, SVG Export Plug-In . SVG Version: 6.00 Build 0)  -->
<!DOCTYPE svg PUBLIC "-//W3C//DTD SVG 1.1//EN" "http://www.w3.org/Graphics/SVG/1.1/DTD/svg11.dtd">
<svg version="1.1" id="Layer_1" xmlns="http://www.w3.org/2000/svg" xmlns:xlink="http://www.w3.org/1999/xlink" x="0px" y="0px"
	 width="240px" height="240px" viewBox="0 0 240 240" enable-background="new 0 0 240 240" xml:space="preserve">
<polyline fill="none" stroke="#010101" stroke-width="7" stroke-miterlimit="10" points="194.021,80.694 211.479,77.796 
	221.479,167.297 121.146,167.297 "/>
<path fill="none" stroke="#010101" stroke-width="7" stroke-miterlimit="10" d="M121.352,83.394
	c14.119-25.414,54.459-7.176,73.821-21.698c1.615,20.171,9.086,84.734,9.086,84.734c-16.278,17.866-66.778-9.134-83.711,20.875"/>
<polyline fill="none" stroke="#010101" stroke-width="7" stroke-miterlimit="10" points="43.091,79.878 30.546,77.796 
	20.546,167.297 120.882,167.297 "/>
<path fill="none" stroke="#010101" stroke-width="7" stroke-miterlimit="10" d="M120.677,83.394
	c-14.119-25.414-54.46-7.176-73.824-21.698c-1.614,20.171-9.086,84.734-9.086,84.734c16.28,17.866,66.78-9.134,83.711,20.875"/>
<line fill="none" stroke="#010101" stroke-width="7" stroke-miterlimit="10" x1="120.966" y1="170.797" x2="120.966" y2="82.272"/>
</svg>
