<?xml version="1.0" encoding="utf-8"?>
<!-- Generator: Adobe Illustrator 16.0.0, SVG Export Plug-In . SVG Version: 6.00 Build 0)  -->
<!DOCTYPE svg PUBLIC "-//W3C//DTD SVG 1.1//EN" "http://www.w3.org/Graphics/SVG/1.1/DTD/svg11.dtd">
<svg version="1.1" id="Layer_1" xmlns="http://www.w3.org/2000/svg" xmlns:xlink="http://www.w3.org/1999/xlink" x="0px" y="0px"
	 width="240px" height="240px" viewBox="0 0 240 240" enable-background="new 0 0 240 240" xml:space="preserve">
<g>
	<path fill="none" stroke="#000000" stroke-width="7" stroke-miterlimit="10" d="M134.823,180.564v-18.428
		c18.03-1.681,33.617-11.237,30.755-13.584c-4.398-3.606-9.219-9.494-13.877-16.066c7.211-3.209,11.453-6.815,9.84-8.134
		c-4.395-3.605-9.221-9.495-13.875-16.068c7.209-3.203,11.454-6.813,9.846-8.133c-9.552-7.825-21.146-26.453-28.562-39.435
		c-0.048-0.09-0.115-0.194-0.174-0.321c-5.956-12.527-7.061-13.557-7.265-13.508c-0.208-0.049-1.312,0.98-7.264,13.508
		c-0.063,0.127-0.129,0.231-0.179,0.321c-7.412,12.981-19.007,31.609-28.556,39.435c-1.615,1.319,2.632,4.93,9.844,8.133
		c-4.658,6.573-9.48,12.463-13.877,16.068c-1.61,1.318,2.628,4.925,9.839,8.134c-4.654,6.572-9.479,12.46-13.874,16.066
		c-2.862,2.347,12.726,11.903,30.751,13.584v18.428c0,0,0.836,4.27,13.001,4.27C133.358,184.834,134.823,180.564,134.823,180.564z"
		/>
	<g>
		<path fill="none" stroke="#000000" stroke-width="7" stroke-miterlimit="10" d="M141.334,110.416c0,0,8.006-2.895,9.024-3.432"/>
		<path fill="none" stroke="#000000" stroke-width="7" stroke-miterlimit="10" d="M144.724,134.728c0,0,7.8-2.045,10.71-4.091"/>
	</g>
	<g>
		<path fill="none" stroke="#000000" stroke-width="7" stroke-miterlimit="10" d="M103.111,111.334c0,0-8.006-2.894-9.025-3.432"/>
		<path fill="none" stroke="#000000" stroke-width="7" stroke-miterlimit="10" d="M99.721,135.646c0,0-7.8-2.045-10.708-4.092"/>
	</g>
</g>
</svg>
