<?xml version="1.0" encoding="utf-8"?>
<!-- Generator: Adobe Illustrator 16.0.0, SVG Export Plug-In . SVG Version: 6.00 Build 0)  -->
<!DOCTYPE svg PUBLIC "-//W3C//DTD SVG 1.1//EN" "http://www.w3.org/Graphics/SVG/1.1/DTD/svg11.dtd">
<svg version="1.1" id="Layer_1" xmlns="http://www.w3.org/2000/svg" xmlns:xlink="http://www.w3.org/1999/xlink" x="0px" y="0px"
	 width="240px" height="240px" viewBox="0 0 240 240" enable-background="new 0 0 240 240" xml:space="preserve">
<g>
	<path fill="#010101" d="M193.394,69.846h-14.194l3.626-11.756H83.639L39.858,164.857l11.65,17.214l0.021-0.015h108.012
		L193.394,69.846z M88.334,65.09h85.006l-29.562,95.859H49.026L88.334,65.09z M55.213,175.057l-4.81-7.107h98.542l28.097-91.103
		h6.929l-29.628,98.21H55.213z"/>
	<polygon fill="#010101" points="89.649,84.186 139.684,84.186 142.034,76.587 92.466,76.587 	"/>
	<polygon fill="#010101" points="84.947,96.921 123.227,96.921 125.576,89.519 87.764,89.519 	"/>
</g>
<g id="strokes" display="none">
	<g display="inline">
		<polyline fill="none" stroke="#010101" stroke-width="7" stroke-miterlimit="10" points="176.527,73.346 188.682,73.346 
			156.941,178.557 51.5,178.557 		"/>
	</g>
	<g display="inline">
		<polyline fill="none" stroke="#010101" stroke-width="7" stroke-miterlimit="10" points="42.556,164.449 146.361,164.449 
			178.083,61.59 85.987,61.59 43.808,164.449 54.406,180.109 		"/>
	</g>
	<polygon display="inline" fill="#010101" points="92.466,76.587 89.649,84.186 139.684,84.186 142.034,76.587 	"/>
	<polygon display="inline" fill="#010101" points="87.764,89.519 84.947,96.921 123.227,96.921 125.576,89.519 	"/>
</g>
</svg>
