<?xml version="1.0" encoding="utf-8"?>
<!-- Generator: Adobe Illustrator 16.0.0, SVG Export Plug-In . SVG Version: 6.00 Build 0)  -->
<!DOCTYPE svg PUBLIC "-//W3C//DTD SVG 1.1//EN" "http://www.w3.org/Graphics/SVG/1.1/DTD/svg11.dtd">
<svg version="1.1" id="Layer_1" xmlns="http://www.w3.org/2000/svg" xmlns:xlink="http://www.w3.org/1999/xlink" x="0px" y="0px"
	 width="240px" height="240px" viewBox="0 0 240 240" enable-background="new 0 0 240 240" xml:space="preserve">
<path d="M179.414,111.655c-2.641-2.362-5.22-4.265-7.725-5.803c-0.031-3.94,0.467-6.271,4.5-10.553l1.528-1.207l-15.966-20.22
	l-1.973,1.558c-3.385,1.954-7.796,1.828-12.456,1.645c4.296-4.516,9.46-5.216,16.741-6.186c0.903-0.12,1.827-0.243,2.771-0.377
	l-0.009-0.064c0.296-0.001,0.595-0.018,0.9-0.054c4.482-0.53,8.13-5.686,8.13-11.494c0-4.665-0.575-7.926-1.81-10.265
	c-1.54-2.917-4.124-4.458-7.562-4.458h-0.001c-0.002,0-0.003,0-0.005,0c-7.04-0.963-13.368-0.911-19.041-0.058
	c-1.049-1.785-2.29-3.416-3.69-4.824l2.674-10.582l-0.066-0.017l0.423-1.143c0,0-10.729-5.699-25.288-6.489
	c-13.903-0.755-24.346,2.552-24.346,2.552l0.021,0.255h-0.123v13.012c-1.126,0.9-2.688,2.319-4.307,4.298
	c-0.245-0.59-0.491-1.173-0.747-1.773c-0.583-1.373-1.186-2.792-1.899-4.655l-0.037,0.014c-0.043-0.224-0.077-0.445-0.14-0.672
	l-0.133-0.485l-0.265-0.427c-1.534-2.48-4.793-5.437-11.603-5.437c-1.213,0-2.518,0.096-3.878,0.286
	c-4.457,0.623-8.062,2.722-10.152,5.913c-1.594,2.433-2.114,5.246-1.431,7.721l-0.002,0c1.796,6.61,3.918,15.09,6.166,24.069
	c1.415,5.652,2.87,11.463,4.261,16.868c-14.126,6.608-24.169,19.951-27.74,30.339c-7.511,21.851,8.011,47.147,14.626,55.051
	c8.255,9.866,49.749,46.053,99.274,46.05c4.215,0,8.494-0.263,12.811-0.825c16.229-2.117,19.988-31.941,20.848-44.621
	C193.564,157.825,191.981,122.9,179.414,111.655z M151.078,84.17c2.978,0,6.027-0.24,8.934-1.206l2.124,2.689
	c-1.365,1.439-5.104,3.218-10.543,4.25l0.001,0.003l-1.939,0.353l3.232,6.462l0.011,0.059c3.868-0.733,9.896-2.344,13.585-5.622
	l1.975,2.5c-2.325,3.172-3.258,5.903-3.59,8.803c-9.93-3.776-18.187-1.953-23.413,0.293c0.151-6.805,0.652-13.862,2.011-18.79
	c1.078,0.015,2.174,0.048,3.315,0.092C148.179,84.114,149.62,84.17,151.078,84.17z M166.905,63.442
	c-0.032,0.003-0.064,0.006-0.097,0.006c0,0,0,0-0.001,0c-0.92,0-2.345-2.273-2.353-5.292c-0.007-3.27,1.445-6.143,2.262-6.894
	c0.034,0.005,0.066,0.008,0.1,0.014l0.014-0.086c0.73,0.091,2.027,0.878,2.027,7.709C168.857,61.506,167.461,63.271,166.905,63.442z
	 M102.345,41.665l1.698-1.02V29.513c1.867-0.468,4.051-0.939,6.423-1.303l0.347,10.769c0,0,4.422-0.427,6.849-0.403l0.126-11.019
	c1.072-0.021,2.153-0.004,3.233,0.057c1.446,0.082,2.852,0.236,4.22,0.438l-1.523,10.927c0,0,4.55,0.429,6.871,1.141l2.181-10.351
	c2.036,0.631,3.922,1.35,5.636,2.099l-2.504,9.91l1.731,1.408c0.894,0.728,1.719,1.589,2.465,2.549
	c-5.663,1.703-10.542,4.27-14.722,7.386c-2.286-1.895-4.985-2.799-7.778-2.53c-4.249,0.403-8.156,3.5-9.956,7.891
	c-1.896,4.628-1.155,9.831,1.945,14.166c-1.575,3.264-2.785,6.536-3.682,9.671c-3.668-1.745-7.452-2.861-11.296-3.368
	c-2.875-8.077-3.175-19.014-0.623-25.993C96.844,45.142,102.31,41.687,102.345,41.665z M113.776,65.379
	c-0.409-1.812-0.037-3.314,0.343-4.243c0.812-1.981,2.476-3.419,4.139-3.577c0.605-0.058,1.158,0.078,1.666,0.314
	C117.593,60.229,115.551,62.758,113.776,65.379z M87.412,50.554c-2.878,7.872-2.896,18.918-0.231,28.175
	c-2.564,0.19-5.14,0.662-7.714,1.393c-1.329-5.174-2.713-10.702-4.061-16.087c-1.429-5.708-2.807-11.212-4.086-16.18
	c0.638,0.067,1.301,0.103,1.99,0.103c0,0,0,0,0.001,0c2.295,0,4.724-0.377,7.024-1.09c2.125-0.658,4.2-1.715,5.9-3.091
	c0.625,1.506,1.208,3.024,1.858,5.077C87.857,49.404,87.627,49.966,87.412,50.554z M69.738,37.78
	c0.561-0.855,1.989-2.358,5.265-2.816c1.04-0.145,2.02-0.219,2.91-0.219c1.786,0,4.066,0.299,5.292,1.645
	c-0.095,1.194-1.722,2.795-4.94,3.792c-1.616,0.5-3.375,0.776-4.954,0.776c0,0,0,0,0,0c-2.646,0-4.002-0.761-4.111-1.151
	C69.082,39.387,69.203,38.597,69.738,37.78z M51.757,115.217c3.357-9.766,13.322-22.574,27.27-27.615
	c3.681-1.331,7.321-1.995,10.905-1.995c5.539,0,10.944,1.587,16.158,4.755c2.288,1.39,3.437,3.293,3.615,5.988
	c1.125,17.059-34.252,53.17-46.727,64.33C56.664,151.787,46.055,131.804,51.757,115.217z M185.715,168.078
	c-1.832,27.01-9.103,37.458-14.773,38.197c-48.092,6.279-91.498-28.265-103.468-40.26c5.465-4.936,16.052-15.243,25.726-26.511
	c16.248-18.925,24.15-33.6,23.49-43.616c-0.258-3.912-1.83-7.201-4.549-9.683c2.638-10.413,12.776-37.215,46.944-35.703
	c-1.071,2.483-1.634,5.297-1.629,7.669c0.006,2.363,0.503,4.543,1.354,6.397c-7.233,1.161-13.972,3.253-19.428,11.257
	c-5.023,7.825-5.171,24.533-4.892,40.975c0.038,2.212,0.07,4.122,0.061,5.57l7,0.047c0.01-1.531-0.023-3.479-0.062-5.735
	c-0.031-1.862-0.067-4.009-0.083-6.312l0.114,0.191c14.167-8.461,27.955,1.595,33.227,6.311c3.925,3.512,7.208,11.88,9.244,23.566
	C185.857,151.15,186.204,162.017,185.715,168.078z"/>
<g id="strokes" display="none">
	<path display="inline" fill="none" stroke="#010165" stroke-width="7" stroke-miterlimit="10" d="M62.447,165.746
		c6.833-5.5,69.077-64.027,45.459-78.376c-26.126-15.874-52.88,7.569-59.459,26.709C41.113,135.414,57.78,160.17,62.447,165.746
		c8.021,9.586,55.292,51,108.948,44c14.002-1.826,17.168-31.928,17.812-41.432c1.062-13.17-1.736-44.754-12.127-54.051
		c-15.486-13.854-29.301-11.518-37.355-6.707"/>
	<g display="inline">
		<path fill="none" stroke="#010165" stroke-width="7" stroke-miterlimit="10" d="M166.346,67.046
			c-10.142,1.435-17.853,1.627-24.02,10.671c-5.805,9.043-4.215,35.417-4.276,44.678"/>
		<path fill="none" stroke="#010165" stroke-width="7" stroke-miterlimit="10" d="M107.916,89.259
			c1.824-11.221,13.616-48.499,59.434-41.441"/>
		<path fill="none" stroke="#010165" stroke-width="7" stroke-miterlimit="10" d="M167.316,66.918
			c2.543-0.301,5.041-3.828,5.041-8.018c0-8.092-1.838-11.256-5.844-11.223c-2.982,0.024-5.568,5.684-5.559,10.487
			C160.967,62.971,163.609,67.356,167.316,66.918z"/>
	</g>
	<path display="inline" fill="none" stroke="#010165" stroke-width="7" stroke-miterlimit="10" d="M79.3,43.525
		c5.692-1.763,8.11-5.344,7.24-8.501c-1.642-2.654-5.263-4.469-12.021-3.526c-6.989,0.976-9.58,6.064-8.691,9.25
		C66.915,44.648,73.599,45.291,79.3,43.525z"/>
	<path display="inline" fill="none" stroke="#010165" stroke-width="7" stroke-miterlimit="10" d="M65.827,40.748
		c3.177,11.692,7.465,29.582,11.187,43.875"/>
	<path display="inline" fill="none" stroke="#010165" stroke-width="7" stroke-miterlimit="10" d="M86.822,36.003
		c2.136,5.584,3.366,7.418,5.212,13.781"/>
	<path display="inline" fill="none" stroke="#010165" stroke-width="7" stroke-miterlimit="10" d="M141.062,80.479
		c7.609-0.285,15.955,1.771,22.082-3.109"/>
	<path display="inline" fill="none" stroke="#010165" stroke-width="7" stroke-miterlimit="10" d="M165.925,86.139
		c-1.629,4.35-10.006,6.506-13.68,7.203"/>
	<path display="inline" fill="none" stroke="#010165" stroke-width="7" stroke-miterlimit="10" d="M174.6,91.907
		c-6.42,6.464-6.533,9.829-6.369,15.994"/>
	
		<line display="inline" fill="none" stroke="#010165" stroke-width="7" stroke-miterlimit="10" x1="159.005" y1="76.041" x2="174.971" y2="96.261"/>
	<path display="inline" fill="none" stroke="#010165" stroke-width="7" stroke-miterlimit="10" d="M113.113,71.496
		c-9.166-10.916,4.81-24.56,12.267-13.127"/>
	<path display="inline" fill="none" stroke="#010165" stroke-width="7" stroke-miterlimit="10" d="M91.784,81.398
		c-3.637-9.074-4.051-21.53-1.085-29.642c3.364-9.2,9.844-13.092,9.844-13.092V23.871"/>
	<path display="inline" fill="none" stroke="#010165" stroke-width="7" stroke-miterlimit="10" d="M143.029,27.856l-3.188,12.615
		c2.385,1.941,4.244,4.488,5.52,7.184"/>
	<path display="inline" fill="none" stroke="#010165" stroke-width="7" stroke-miterlimit="10" d="M119.535,40.111"/>
	<path display="inline" fill="#010101" d="M97.78,31.403c0,0,11.673-4.441,23.242-3.79c9.946,0.561,18.152,4.264,23.09,7.147
		l2.668-7.207c0,0-10.729-5.699-25.288-6.489c-13.903-0.755-24.346,2.552-24.346,2.552L97.78,31.403z"/>
	<path display="inline" fill="#010101" d="M110.405,26.309l0.408,12.669c0,0,4.422-0.427,6.849-0.403l0.144-12.607L110.405,26.309z"
		/>
	<path display="inline" fill="#010101" d="M125.38,27.058l-1.662,11.92c0,0,4.55,0.429,6.871,1.141l2.415-11.464L125.38,27.058z"/>
	<polygon display="inline" fill="#010101" points="151.874,89.855 149.654,90.259 152.891,96.73 154.904,91.423 	"/>
</g>
</svg>
