<?xml version="1.0" encoding="utf-8"?>
<!-- Generator: Adobe Illustrator 16.0.0, SVG Export Plug-In . SVG Version: 6.00 Build 0)  -->
<!DOCTYPE svg PUBLIC "-//W3C//DTD SVG 1.0//EN" "http://www.w3.org/TR/2001/REC-SVG-20010904/DTD/svg10.dtd">
<svg version="1.0" id="Layer_1" xmlns="http://www.w3.org/2000/svg" xmlns:xlink="http://www.w3.org/1999/xlink" x="0px" y="0px"
	 width="768px" height="400px" viewBox="0 0 768 400" enable-background="new 0 0 768 400" xml:space="preserve">
<g>
	<path fill="none" d="M226.823,205.516c9.005,0,18.829,0,27.833,0c29.471,0,76.951,8.187,101.51-9.824
		c22.922-17.191-8.186-28.652-14.735-4.912c-4.912,17.191,31.927,43.388,21.285,52.393c-9.824,7.367-36.02-15.555-39.294-22.922
		c-13.098-23.74,20.466-19.647,37.657-21.284c4.912,0,35.201,3.274,37.657-5.73c2.456-11.461-19.647-29.471-28.652-31.927
		c-13.098,20.466,52.392,87.594,76.132,84.319c9.005-18.011-16.372-94.961-41.75-84.319c-12.279,4.912-9.823,44.206-9.005,52.393
		c2.456,18.828,13.917,28.651,18.828,45.843c-12.279,2.456-30.289-13.098-40.113-18.828c-9.823-5.73-26.196-11.461-31.926-20.466
		c19.647-14.735,47.48-21.284,69.583-32.745c12.28-7.368,36.839-17.191,44.206-31.927c-22.103-13.917-62.216,56.485-85.956,58.941
		c-9.005-18.01-5.73-45.024-5.73-64.672c-0.819-9.823,1.637-22.921-7.368-27.833c-22.103,29.471,37.657,99.054,66.309,107.24
		c3.274-38.476-62.215-74.495-79.407-27.833c-10.642,28.651,10.642,48.299,34.382,58.94c11.461,4.912,28.652,5.73,37.657,13.099
		c-18.01,10.642-66.309-13.099-68.765-34.383c9.824-8.186,25.377-9.005,36.838-10.642c9.005-1.638,38.476-0.819,45.024-9.005
		c5.73-8.187-1.637-22.922-11.461-21.285c-3.274,11.46,40.932,3.275,49.937,2.456c10.643,0,22.104-1.637,32.745-0.819
		c13.917,0.819,27.015,6.549,40.932,6.549"/>
</g>
</svg>
