<?xml version="1.0" encoding="utf-8"?>
<!-- Generator: Adobe Illustrator 16.0.0, SVG Export Plug-In . SVG Version: 6.00 Build 0)  -->
<!DOCTYPE svg PUBLIC "-//W3C//DTD SVG 1.1//EN" "http://www.w3.org/Graphics/SVG/1.1/DTD/svg11.dtd">
<svg version="1.1" id="Layer_1" xmlns="http://www.w3.org/2000/svg" xmlns:xlink="http://www.w3.org/1999/xlink" x="0px" y="0px"
	 width="240px" height="240px" viewBox="0 0 240 240" enable-background="new 0 0 240 240" xml:space="preserve">
<g>
	<path fill="none" stroke="#010101" stroke-width="7" stroke-miterlimit="10" d="M161.883,52c8.902,0-37.715,99.5-65.5,102
		c-21.437,1.93-24.5-4.5-24-6.5s8.82-1.305,17.5-5C114.541,132,158.383,52,161.883,52z"/>
	<path fill="none" stroke="#010101" stroke-width="7" stroke-miterlimit="10" d="M159.883,116l6.545,73.5h8.455c0,0,3-71,9-98.5
		s-18.854-40.654-22-39"/>
	<path fill="none" stroke="#010101" stroke-width="7" stroke-miterlimit="10" d="M183.883,91c0,0-23.666,22.361-30.333,30.182
		c-6.667,7.819-15,30.152-17,38.818s-5.544,28.883-15.425,30.004c-21.992,2.496-65.992,0.246-72.992-8.504c0,0-3.875-15.625,1-22.25
		c4.117-5.596,23.873-11.939,24.417-12.584"/>
</g>
</svg>
