<?xml version="1.0" encoding="utf-8"?>
<!-- Generator: Adobe Illustrator 16.0.0, SVG Export Plug-In . SVG Version: 6.00 Build 0)  -->
<!DOCTYPE svg PUBLIC "-//W3C//DTD SVG 1.1//EN" "http://www.w3.org/Graphics/SVG/1.1/DTD/svg11.dtd">
<svg version="1.1" id="Layer_1" xmlns="http://www.w3.org/2000/svg" xmlns:xlink="http://www.w3.org/1999/xlink" x="0px" y="0px"
	 width="240px" height="240px" viewBox="0 0 240 240" enable-background="new 0 0 240 240" xml:space="preserve">
<g>
	<path fill="none" stroke="#010101" stroke-width="8" stroke-miterlimit="10" d="M224.979,100.701
		c-7.183,17.031-28.994,49.182-36.397,53.934c-3.499,1.582-140.575,43.422-146.492,41.242c-6.822-3.592-26.344-39.641-25.829-47.277
		c0.623-11.697,63.534-65.659,76.133-78.395c7.747-7.63,28.671-27.521,31.257-28.7c8.67-3.95,36.867-6.447,52.574-5.897
		c12.241,0.779,14.5-1.333,20.875,7.197c7.463,9.162,20.506,30.959,27.395,44.687C226.49,91.469,225.755,98.855,224.979,100.701z"/>
	<path fill="none" stroke="#010101" stroke-width="8" stroke-miterlimit="10" d="M148.352,74.453
		c8.407,15.284,16.228,26.177,24.34,38.973"/>
	<path fill="none" stroke="#010101" stroke-width="8" stroke-miterlimit="10" d="M179.732,82.486
		c-18.142,10.925-40.33,26.187-58.377,35.98"/>
</g>
</svg>
