<?xml version="1.0" encoding="utf-8"?>
<!-- Generator: Adobe Illustrator 16.0.0, SVG Export Plug-In . SVG Version: 6.00 Build 0)  -->
<!DOCTYPE svg PUBLIC "-//W3C//DTD SVG 1.1//EN" "http://www.w3.org/Graphics/SVG/1.1/DTD/svg11.dtd">
<svg version="1.1" id="Layer_1" xmlns="http://www.w3.org/2000/svg" xmlns:xlink="http://www.w3.org/1999/xlink" x="0px" y="0px"
	 width="240px" height="240px" viewBox="0 0 240 240" enable-background="new 0 0 240 240" xml:space="preserve">
<g>
	<g>
		<path fill="none" stroke="#010101" stroke-width="7.9529" stroke-miterlimit="10" d="M153.621,62.926
			c13.716,0,24.87,4.888,31.409,13.762c6.586,8.94,7.919,21.133,3.756,34.334c-4.444,14.093-14.482,27.446-28.267,37.6
			c-13.877,10.229-29.699,15.858-44.553,15.858c-13.718,0-24.874-4.89-31.413-13.766c-6.586-8.939-7.921-21.133-3.757-34.333
			c4.445-14.092,14.485-27.445,28.269-37.599c13.875-10.224,29.698-15.855,44.553-15.855L153.621,62.926"/>
	</g>
	<path fill="none" stroke="#010101" stroke-width="7.6581" stroke-miterlimit="10" d="M88.979,158.117c0,0-9.218,5.805-11.12,7.203
		c-1.903,1.404-9.467,11.937-15.128,16.106c-6.469,4.767-14.619,1.839-17.249,0.301c0,0-2.035-0.733-2.725-3.699
		c-0.69-2.967-1.07-11.617,5.4-16.383c5.661-4.172,17.317-8.334,19.222-9.736c1.902-1.404,10.819-8.426,10.819-8.426"/>
</g>
<line fill="none" stroke="#010101" stroke-width="7.5" stroke-miterlimit="10" x1="187.088" y1="119.502" x2="130.251" y2="125.783"/>
<line fill="none" stroke="#010101" stroke-width="7.5" stroke-miterlimit="10" x1="190.895" y1="99.43" x2="146.184" y2="104.493"/>
</svg>
