<?xml version="1.0" encoding="utf-8"?>
<!-- Generator: Adobe Illustrator 16.0.0, SVG Export Plug-In . SVG Version: 6.00 Build 0)  -->
<!DOCTYPE svg PUBLIC "-//W3C//DTD SVG 1.1//EN" "http://www.w3.org/Graphics/SVG/1.1/DTD/svg11.dtd">
<svg version="1.1" id="Layer_1" xmlns="http://www.w3.org/2000/svg" xmlns:xlink="http://www.w3.org/1999/xlink" x="0px" y="0px"
	 width="240px" height="240px" viewBox="0 0 240 240" enable-background="new 0 0 240 240" xml:space="preserve">
<g display="none">
	<path display="inline" fill="none" stroke="#010101" stroke-width="8" stroke-miterlimit="10" d="M224.979,100.701
		c-7.183,17.031-28.995,49.182-36.398,53.934c-3.499,1.582-140.575,43.422-146.492,41.242c-6.822-3.592-26.344-39.641-25.829-47.277
		c0.623-11.697,63.534-65.659,76.133-78.395c7.747-7.63,28.671-27.521,31.257-28.7c8.671-3.95,36.868-6.447,52.574-5.897
		c12.242,0.779,14.5-1.333,20.876,7.197c7.462,9.162,20.506,30.959,27.394,44.687C226.49,91.469,225.755,98.855,224.979,100.701z"/>
	<path display="inline" fill="none" stroke="#010101" stroke-width="8" stroke-miterlimit="10" d="M148.351,74.453
		c8.408,15.284,16.228,26.177,24.341,38.973"/>
	<path display="inline" fill="none" stroke="#010101" stroke-width="8" stroke-miterlimit="10" d="M179.732,82.486
		c-18.141,10.925-40.33,26.187-58.376,35.98"/>
</g>
<g display="none">
	<path display="inline" fill="none" stroke="#010101" stroke-width="7" stroke-miterlimit="10" d="M121.58,150.779
		c23.229,0,36.799-4.064,52.84-7.506l0.057-58.242L150.206,118.1l-28.092-37.388l-28.688,37.719L67.55,88.009v55.264
		C83.587,146.715,98.355,150.779,121.58,150.779z"/>
</g>
<g>
	<g>
		<path fill="none" stroke="#010101" stroke-width="7.5" stroke-miterlimit="10" d="M157.544,64.225
			c-11.064-2.305-25.388,3.627-29.944,4.945c-2.148,0.622-5.805,1.497-6.588,1.656c-0.781-0.159-4.438-1.034-6.587-1.656
			c-4.558-1.318-18.879-7.25-29.945-4.945c-11.064,2.308-36.233,17.58-26.144,54.493c10.09,36.913,21.731,46.241,26.004,50.565
			c6.397,6.479,22.275,12.604,27.153,9.965c4.844-2.613,6.228-2.619,9.519-2.939c3.292,0.32,4.677,0.326,9.515,2.939
			c4.888,2.639,20.761-3.486,27.163-9.965c4.268-4.324,15.913-13.652,25.999-50.565C193.782,81.805,168.61,66.533,157.544,64.225z"
			/>
	</g>
	<path fill="none" stroke="#010101" stroke-width="7.5" stroke-miterlimit="10" d="M107.252,81.693c0,0,14.212,4.991,26.151,0"/>
	<path fill="none" stroke="#010101" stroke-width="7.5" stroke-miterlimit="10" d="M122.9,51.615c0,0-3.977,12.749-2.573,29.762"/>
</g>
<g display="none">
	<g display="inline">
		<g>
			<path fill="#010101" d="M113.489,29.42v7.5c9.342,0,19.162,4.539,27.652,12.781c9.042,8.777,15.965,21.19,19.494,34.954
				c4.011,15.64,3.378,31.382-1.782,44.326c-4.834,12.126-13.082,20.235-23.227,22.835c-2.308,0.592-4.694,0.893-7.095,0.893
				c-9.342,0-19.161-4.539-27.65-12.781c-9.041-8.777-15.963-21.19-19.492-34.955c-4.01-15.639-3.377-31.38,1.783-44.325
				c4.833-12.125,13.081-20.236,23.223-22.836c2.307-0.591,4.693-0.891,7.094-0.892V29.42 M113.489,29.42
				c-2.996,0-5.992,0.367-8.956,1.126c-25.894,6.64-39.51,40.795-30.408,76.289c8.059,31.432,31.226,53.373,54.407,53.373
				c2.996,0,5.994-0.367,8.958-1.127c25.896-6.639,39.514-40.793,30.41-76.29C159.841,51.36,136.671,29.42,113.489,29.42
				L113.489,29.42z"/>
		</g>
		<path fill="none" stroke="#010101" stroke-width="7.5" stroke-miterlimit="10" d="M132.221,155.87l12.316-3.16
			c0,0,1.889,10.499,2.461,12.739c0.577,2.242,7.365,12.975,9.075,19.646c1.954,7.623-3.693,13.949-6.054,15.773
			c0,0-1.414,1.578-4.359,1.117c-2.947-0.463-10.941-3.291-12.896-10.914c-1.712-6.672-1.215-18.783-1.79-21.027
			c-0.577-2.242-3.682-12.915-3.682-12.915l12.318-3.157"/>
	</g>
	
		<line display="inline" fill="none" stroke="#010101" stroke-width="7.5" stroke-miterlimit="10" x1="145.934" y1="48.079" x2="130.466" y2="103.13"/>
	
		<line display="inline" fill="none" stroke="#010101" stroke-width="7.5" stroke-miterlimit="10" x1="128.748" y1="37.031" x2="116.694" y2="80.383"/>
</g>
<g display="none">
	
		<rect x="79.513" y="52.562" display="inline" fill="none" stroke="#010101" stroke-width="7" stroke-miterlimit="10" width="84.084" height="126.366"/>
	
		<line display="inline" fill="none" stroke="#010101" stroke-width="7" stroke-miterlimit="10" x1="121.555" y1="50.366" x2="121.555" y2="181.125"/>
	
		<line display="inline" fill="none" stroke="#010101" stroke-width="7" stroke-miterlimit="10" x1="77.717" y1="115.744" x2="164.31" y2="115.744"/>
</g>
<g display="none">
	<polyline display="inline" fill="none" stroke="#010101" stroke-width="7" stroke-miterlimit="10" points="194.021,80.694 
		211.479,77.796 221.479,167.297 121.146,167.297 	"/>
	<path display="inline" fill="none" stroke="#010101" stroke-width="7" stroke-miterlimit="10" d="M121.351,83.394
		c14.119-25.414,54.459-7.176,73.822-21.698c1.615,20.171,9.086,84.733,9.086,84.733c-16.279,17.867-66.779-9.133-83.711,20.876"/>
	<polyline display="inline" fill="none" stroke="#010101" stroke-width="7" stroke-miterlimit="10" points="43.091,79.878 
		30.546,77.796 20.546,167.297 120.882,167.297 	"/>
	<path display="inline" fill="none" stroke="#010101" stroke-width="7" stroke-miterlimit="10" d="M120.677,83.394
		c-14.119-25.414-54.46-7.176-73.824-21.698c-1.614,20.171-9.086,84.733-9.086,84.733c16.28,17.867,66.78-9.133,83.712,20.876"/>
	
		<line display="inline" fill="none" stroke="#010101" stroke-width="7" stroke-miterlimit="10" x1="120.966" y1="169.797" x2="120.966" y2="82.272"/>
</g>
<g display="none">
	<g display="inline">
		<polyline fill="none" stroke="#010101" stroke-width="7" stroke-miterlimit="10" points="173.343,75.423 183.681,75.423 
			156.681,164.924 66.345,164.924 		"/>
	</g>
	<g display="inline">
		<polyline fill="none" stroke="#010101" stroke-width="7" stroke-miterlimit="10" points="58.345,152.924 147.681,152.924 
			174.665,65.423 96.321,65.423 60.44,152.924 69.345,166.068 		"/>
	</g>
	<polygon display="inline" fill="#010101" points="101.833,78.181 99.437,85.546 141.999,85.546 143.999,78.181 	"/>
	<polygon display="inline" fill="#010101" points="97.833,89.181 95.437,96.547 127.999,96.547 129.999,89.181 	"/>
</g>
<g display="none">
	<path display="inline" fill="none" stroke="#010101" stroke-width="7" stroke-miterlimit="10" d="M65.447,165.746
		c6.833-5.5,69.076-64.027,45.459-78.376c-26.126-15.874-52.88,7.569-59.459,26.709C44.113,135.414,60.78,160.17,65.447,165.746
		c8.021,9.586,55.292,51,108.948,44c14.002-1.826,17.168-31.928,17.812-41.432c1.062-13.17-1.736-44.754-12.127-54.051
		c-15.486-13.854-29.301-11.518-37.355-6.707"/>
	<g display="inline">
		<path fill="none" stroke="#010101" stroke-width="7" stroke-miterlimit="10" d="M169.345,67.046
			c-10.141,1.435-17.852,1.627-24.019,10.671c-5.804,9.043-4.215,35.417-4.276,44.678"/>
		<path fill="none" stroke="#010101" stroke-width="7" stroke-miterlimit="10" d="M110.916,89.259
			c1.824-11.221,13.616-48.499,59.433-41.441"/>
		<path fill="none" stroke="#010101" stroke-width="7" stroke-miterlimit="10" d="M170.317,66.918
			c2.542-0.301,5.041-3.828,5.041-8.018c0-8.092-1.839-11.256-5.844-11.223c-2.983,0.024-5.568,5.684-5.559,10.487
			C163.967,62.971,166.61,67.356,170.317,66.918z"/>
	</g>
	<path display="inline" fill="none" stroke="#010101" stroke-width="7" stroke-miterlimit="10" d="M82.3,43.525
		c5.692-1.763,8.11-5.344,7.24-8.501c-1.642-2.654-5.263-4.469-12.021-3.526c-6.989,0.976-9.58,6.064-8.691,9.25
		C69.915,44.648,76.599,45.291,82.3,43.525z"/>
	<path display="inline" fill="none" stroke="#010101" stroke-width="7" stroke-miterlimit="10" d="M68.827,40.748
		c3.177,11.692,7.465,29.582,11.187,43.875"/>
	<path display="inline" fill="none" stroke="#010101" stroke-width="7" stroke-miterlimit="10" d="M89.822,36.003
		c2.136,5.584,3.366,7.418,5.212,13.781"/>
	<path display="inline" fill="none" stroke="#010101" stroke-width="7" stroke-miterlimit="10" d="M144.062,80.479
		c7.61-0.285,15.956,1.771,22.083-3.109"/>
	<path display="inline" fill="none" stroke="#010101" stroke-width="7" stroke-miterlimit="10" d="M168.925,86.139
		c-1.629,4.35-10.006,6.506-13.68,7.203"/>
	<path display="inline" fill="none" stroke="#010101" stroke-width="7" stroke-miterlimit="10" d="M177.599,91.907
		c-6.42,6.464-6.533,9.829-6.369,15.994"/>
	
		<line display="inline" fill="none" stroke="#010101" stroke-width="7" stroke-miterlimit="10" x1="162.005" y1="76.041" x2="177.97" y2="96.261"/>
	<path display="inline" fill="none" stroke="#010101" stroke-width="7" stroke-miterlimit="10" d="M116.113,71.496
		c-9.166-10.916,4.81-24.56,12.267-13.127"/>
	<path display="inline" fill="none" stroke="#010101" stroke-width="7" stroke-miterlimit="10" d="M94.784,81.398
		c-3.637-9.074-4.051-21.53-1.085-29.642c3.364-9.2,9.844-13.092,9.844-13.092V23.871"/>
	<path display="inline" fill="none" stroke="#010101" stroke-width="7" stroke-miterlimit="10" d="M146.03,27.856l-3.188,12.615
		c2.385,1.941,4.244,4.488,5.52,7.184"/>
	<path display="inline" fill="none" stroke="#010101" stroke-width="7" stroke-miterlimit="10" d="M122.535,40.111"/>
	<path display="inline" fill="#010101" d="M100.78,31.403c0,0,11.673-4.441,23.242-3.79c9.946,0.561,18.152,4.264,23.09,7.147
		l2.668-7.207c0,0-10.729-5.699-25.289-6.489c-13.903-0.755-24.346,2.552-24.346,2.552L100.78,31.403z"/>
	<path display="inline" fill="#010101" d="M113.405,26.309l0.408,12.669c0,0,4.422-0.427,6.849-0.403l0.144-12.607L113.405,26.309z"
		/>
	<path display="inline" fill="#010101" d="M128.38,27.058l-1.662,11.92c0,0,4.549,0.429,6.871,1.141l2.415-11.464L128.38,27.058z"/>
	<polygon display="inline" fill="#010101" points="154.874,89.855 152.655,90.259 155.89,96.73 157.905,91.423 	"/>
</g>
<g display="none">
	<path display="inline" fill="none" stroke="#010101" stroke-width="7" stroke-miterlimit="10" d="M165.883,51
		c8.902,0-37.715,99.5-65.5,102c-21.437,1.929-24.5-4.5-24-6.5s8.82-1.304,17.5-5C118.541,131,162.383,51,165.883,51z"/>
	<path display="inline" fill="none" stroke="#010101" stroke-width="7" stroke-miterlimit="10" d="M163.883,115l6.545,73.5h8.455
		c0,0,3-71,9-98.5s-18.854-40.654-22-39"/>
	<path display="inline" fill="none" stroke="#010101" stroke-width="7" stroke-miterlimit="10" d="M187.883,90
		c0,0-23.666,22.361-30.333,30.181s-15,30.153-17,38.819s-5.544,28.883-15.425,30.004c-21.992,2.496-65.992,0.246-72.992-8.504
		c0,0-3.875-15.625,1-22.25c4.117-5.595,23.873-11.94,24.417-12.584"/>
</g>
</svg>
