<?xml version="1.0" encoding="utf-8"?>
<!-- Generator: Adobe Illustrator 16.0.0, SVG Export Plug-In . SVG Version: 6.00 Build 0)  -->
<!DOCTYPE svg PUBLIC "-//W3C//DTD SVG 1.1//EN" "http://www.w3.org/Graphics/SVG/1.1/DTD/svg11.dtd">
<svg version="1.1" id="Layer_1" xmlns="http://www.w3.org/2000/svg" xmlns:xlink="http://www.w3.org/1999/xlink" x="0px" y="0px"
	 width="240px" height="240px" viewBox="0 0 240 240" enable-background="new 0 0 240 240" xml:space="preserve">
<g>
	<g>
		<path fill="none" stroke="#010101" stroke-width="7.5" stroke-miterlimit="10" d="M157.544,64.225
			c-11.063-2.305-25.388,3.627-29.944,4.945c-2.147,0.622-5.805,1.497-6.588,1.656c-0.781-0.159-4.438-1.034-6.587-1.656
			c-4.558-1.318-18.879-7.25-29.945-4.945c-11.064,2.308-36.233,17.58-26.144,54.493c10.09,36.913,21.731,46.241,26.004,50.565
			c6.397,6.479,22.275,12.604,27.153,9.965c4.844-2.613,6.228-2.619,9.519-2.939c3.293,0.32,4.678,0.326,9.516,2.939
			c4.888,2.639,20.761-3.486,27.162-9.965c4.269-4.324,15.914-13.652,26-50.565C193.782,81.805,168.609,66.533,157.544,64.225z"/>
	</g>
	<path fill="none" stroke="#010101" stroke-width="7.5" stroke-miterlimit="10" d="M107.252,81.693c0,0,14.212,4.991,26.15,0"/>
	<path fill="none" stroke="#010101" stroke-width="7.5" stroke-miterlimit="10" d="M122.9,51.615c0,0-3.978,12.749-2.573,29.762"/>
</g>
</svg>
