<?xml version="1.0" encoding="utf-8"?>
<!-- Generator: Adobe Illustrator 16.0.0, SVG Export Plug-In . SVG Version: 6.00 Build 0)  -->
<!DOCTYPE svg PUBLIC "-//W3C//DTD SVG 1.1//EN" "http://www.w3.org/Graphics/SVG/1.1/DTD/svg11.dtd">
<svg version="1.1" id="Layer_1" xmlns="http://www.w3.org/2000/svg" xmlns:xlink="http://www.w3.org/1999/xlink" x="0px" y="0px"
	 width="120px" height="120px" viewBox="0 0 120 120" enable-background="new 0 0 120 120" xml:space="preserve">
<g>
	<g>
		<rect x="13.905" y="3.978" width="1.963" height="112.043"/>
	</g>
	<g>
		<polyline points="19.054,112.928 15.013,120 10.718,112.928 		"/>
	</g>
	<g>
		<polyline points="19.054,7.072 15.013,0 10.718,7.072 		"/>
	</g>
</g>
<g>
	<polygon fill="#FFFFFF" points="34.61,37.535 26.225,28.917 20.779,22.108 17.276,19.486 12.775,19.241 10.965,22.18 
		14.475,31.054 22.425,42.86 27.997,50.544 29.438,54.356 28.821,62.483 42.79,91.288 51.861,98.468 67.307,103.391 74.01,111.487 
		79.299,118.946 108.995,103.603 101.861,89.041 99.092,69.79 86.88,46.985 78.057,38.43 73.804,36.809 70.118,39.125 
		66.114,36.129 61.988,35.383 55.428,39.452 54.179,40.079 50.844,37.473 41.179,42.842 	"/>
	<g>
		<path d="M108.995,103.603c-4.416-6.805-8.255-13.048-8.583-14.675c-0.18-0.895-0.157-1.931-0.131-3.243
			c0.057-2.759,0.143-6.929-1.733-13.189c-2.26-7.548-6.865-16.389-13.687-26.274c-1.011-1.465-2.092-2.625-3.026-3.595
			c-3.074-3.198-4.936-4.842-6.587-4.951c-1.328-0.089-2.844,0.751-5.247,2.33c-0.426,0.28-0.986-0.009-0.986-0.009
			s-0.484-1.455,0.12-1.849c2.633-1.716,4.371-2.622,6.248-2.498c2.327,0.155,4.406,1.918,7.915,5.569
			c0.989,1.03,2.136,2.26,3.233,3.85c6.942,10.061,11.639,19.091,13.961,26.844c1.966,6.565,1.877,10.928,1.817,13.813
			c-0.023,1.188-0.043,2.126,0.093,2.801c0.256,1.268,3.748,7.009,8.215,13.955L108.995,103.603z"/>
		<path d="M79.299,118.946c-0.826-1.642-1.584-3.17-2.155-4.374c-3.846-8.096-8.955-11.71-9.17-11.86l-0.216-0.148l-0.259-0.026
			c-0.139-0.015-13.984-1.536-20.725-8.464c-6.854-7.039-16.297-27.763-16.744-29.982c-0.443-2.206,0.161-9.563,0.863-10.497
			c-0.029,0.038-0.146,0.145-0.345,0.185l-0.97-1.917c-0.769,0.154-1.057,0.68-1.524,5.827c-0.213,2.351-0.287,5.442-0.013,6.803
			c0.475,2.362,10.023,23.544,17.278,30.997c6.788,6.975,19.571,8.779,21.688,9.034c0.938,0.722,5.099,4.172,8.303,10.92
			c0.563,1.186,1.302,2.687,2.105,4.298C77.231,120.019,79.501,119.07,79.299,118.946z"/>
		<path d="M73.538,44.791c-7.873-9.108-9.843-8.531-11.146-8.15c-0.197,0.058-0.401,0.118-0.622,0.163
			c-1.382,0.277-5.428,2.713-7.655,4.183l-1.117-1.694c0.623-0.411,6.152-4.032,8.374-4.478c0.133-0.028,0.28-0.071,0.451-0.121
			c2.476-0.723,5.181-0.563,13.25,8.771L73.538,44.791z"/>
		<path d="M40.508,43.267c0.091-0.474,0.256-0.936,0.527-1.342c1.319-1.982,8.855-4.259,9.809-4.451
			c1.185-0.237,2.844,0.934,6.347,3.664c1.352,1.053,2.749,2.143,3.54,2.562l-0.95,1.793c-0.948-0.504-2.352-1.597-3.838-2.755
			c-1.505-1.174-4.01-3.125-4.763-3.261c-1.767,0.381-7.807,2.598-8.457,3.572c-0.281,0.423-0.318,1.121-0.253,1.792
			c0.056,0.593,0.19,1.165,0.305,1.509"/>
		<path d="M44.709,81.216c-3.005-2.351-7.039-13.195-7.489-14.424c-0.73-1.993-6.805-11.741-8.53-13.464
			c-1.943-1.939-7.189-9.296-8.77-12.299c-0.443-0.844-1.309-2.125-2.311-3.609c-2.204-3.262-5.223-7.731-6.856-12.083
			c-1.38-3.674,0.094-5.498,1.095-6.259c2.05-1.559,5.354-1.277,7.037-0.049c0.877,0.64,2.969,2.952,5.825,6.148
			c1.357,1.517,2.896,3.237,3.207,3.485c1.651,1.292,5.846,6.167,7.093,7.63c2.117,2.485,12.535,11.752,12.639,11.845l-1.347,1.517
			c-0.433-0.385-10.628-9.455-12.837-12.047c-2.39-2.805-5.604-6.413-6.798-7.347c-0.422-0.331-1.48-1.506-3.468-3.731
			c-1.999-2.236-4.737-5.298-5.51-5.863c-1.051-0.767-3.387-0.905-4.613,0.027c-0.98,0.745-1.123,2.066-0.424,3.93
			c1.551,4.126,4.491,8.481,6.639,11.66c1.079,1.596,1.93,2.857,2.425,3.798c1.598,3.038,6.735,10.141,8.409,11.81
			c1.949,1.945,8.183,11.968,9.002,14.202c1.687,4.607,4.899,12.011,6.833,13.523L44.709,81.216z"/>
		<path d="M15.81,28.272c-0.382,0.077-1.175,0.236-5.038-3.002l1.303-1.556c1.256,1.054,2.871,2.251,3.473,2.521
			c0.704-0.285,2.764-1.511,3.431-2.08c-0.202-0.829-1.395-3.042-2.085-3.928l1.6-1.247c0.451,0.58,1.154,1.747,1.673,2.777
			c1.036,2.059,1.007,2.846,0.643,3.393C20.21,26.052,16.696,28.094,15.81,28.272"/>
	</g>
</g>
</svg>
