<?xml version="1.0" encoding="utf-8"?>
<!-- Generator: Adobe Illustrator 16.0.0, SVG Export Plug-In . SVG Version: 6.00 Build 0)  -->
<!DOCTYPE svg PUBLIC "-//W3C//DTD SVG 1.1//EN" "http://www.w3.org/Graphics/SVG/1.1/DTD/svg11.dtd">
<svg version="1.1" id="Layer_1" xmlns="http://www.w3.org/2000/svg" xmlns:xlink="http://www.w3.org/1999/xlink" x="0px" y="0px"
	 width="608.678px" height="601.828px" viewBox="0 0 608.678 601.828" enable-background="new 0 0 608.678 601.828"
	 xml:space="preserve">
<g id="Layer_1_1_" display="none">
	<g display="inline">
		<g>
			<path fill="none" stroke="#010101" stroke-width="8" d="M760.153,302.608V-4.365c0-7.671-6.275-13.947-13.947-13.947H371.14
				c-7.671,0-13.947,6.276-13.947,13.947v307.748"/>
			<line fill="none" stroke="#010101" stroke-width="8" x1="360.14" y1="533.458" x2="756.206" y2="533.458"/>
		</g>
		<rect x="391.897" y="35.753" fill="none" stroke="#010101" stroke-width="8" width="333.552" height="443.641"/>
		<circle fill="#010101" cx="558.674" cy="9.398" r="4.106"/>
		<g>
			<g>
				<path fill="none" stroke="#010101" stroke-width="8" d="M332.582,313.771c0,0-3.24,21.938-0.583,24.094
					c2.332,1.893,24.746,6.168,26.579,3.275c2.955-4.66,7.781-20.203,7.378-26.389"/>
				<line fill="none" stroke="#010101" stroke-width="8" x1="322.352" y1="579.396" x2="305.365" y2="721.609"/>
				<path fill="none" stroke="#010101" stroke-width="8" d="M238.44,390.08c0,0-9.732,2.98-16.14,8.17
					c-6.405,5.189-7.348,25.705-6.914,31.209c0.433,5.502,4.011,118.271,9.251,134.938c5.239,16.668-31,155.213-31,155.213"/>
				<path fill="none" stroke="#010101" stroke-width="8" d="M357.041,288.607c-7.521-2.231-22.713-3.906-29.508-1.516
					c-6.359,2.237-55.202,60.625-61.019,67.899c-5.817,7.271-18.214,15.215-24.784,21.367c-5.653,5.293-9.492,19.961-4.743,35.941"
					/>
				<path fill="none" stroke="#010101" stroke-width="8" d="M307.769,589.398c8.908-7.129,56.428-34.758,58.201-84.455
					c1.438-40.312,0.336-40.873-4.131-63.014c-2.794-13.846,6.1-53.52,6.876-70.457c0.377-8.207,5.763-63.184-13.136-69.534
					c-18.898-6.35-23.926,11.833-24.615,19.296c-0.632,6.848-11.761,37.361-12.532,42.781c-1.385,9.723-10.948,65.229-23.296,80.424
					"/>
				<path fill="none" stroke="#010101" stroke-width="8" d="M292.226,418.261"/>
				<path fill="none" stroke="#010101" stroke-width="8" d="M310.855,400.613"/>
				<line fill="none" stroke="#010101" stroke-width="8" x1="288.73" y1="409.617" x2="309.247" y2="410.56"/>
				<line fill="none" stroke="#010101" stroke-width="8" x1="299.815" y1="374.394" x2="313.74" y2="389.925"/>
			</g>
			<g>
				<path fill="none" stroke="#010101" stroke-width="8" d="M784.764,313.771c0,0,3.24,21.938,0.583,24.094
					c-2.332,1.893-24.746,6.168-26.58,3.275c-2.954-4.66-7.78-20.203-7.378-26.389"/>
				<line fill="none" stroke="#010101" stroke-width="8" x1="794.993" y1="579.396" x2="811.98" y2="721.609"/>
				<path fill="none" stroke="#010101" stroke-width="8" d="M878.905,390.08c0,0,9.732,2.98,16.141,8.17
					c6.404,5.189,7.348,25.705,6.915,31.209c-0.435,5.502-4.013,118.271-9.252,134.938c-5.24,16.668,31,155.213,31,155.213"/>
				<path fill="none" stroke="#010101" stroke-width="8" d="M760.306,288.607c7.521-2.231,22.713-3.906,29.508-1.516
					c6.359,2.237,55.201,60.625,61.021,67.899c5.815,7.271,18.213,15.215,24.782,21.367c5.653,5.293,9.492,19.961,4.743,35.941"/>
				<path fill="none" stroke="#010101" stroke-width="8" d="M809.577,589.398c-8.907-7.129-56.428-34.758-58.2-84.455
					c-1.438-40.312-0.336-40.873,4.13-63.014c2.794-13.846-6.1-53.52-6.876-70.457c-0.377-8.207-5.764-63.184,13.135-69.534
					c18.9-6.35,23.927,11.833,24.615,19.296c0.633,6.848,11.762,37.361,12.533,42.781c1.384,9.723,10.946,65.229,23.297,80.424"/>
				<path fill="none" stroke="#010101" stroke-width="8" d="M825.12,418.261"/>
				<path fill="none" stroke="#010101" stroke-width="8" d="M806.491,400.613"/>
				<line fill="none" stroke="#010101" stroke-width="8" x1="828.615" y1="409.617" x2="808.099" y2="410.56"/>
				<line fill="none" stroke="#010101" stroke-width="8" x1="817.53" y1="374.394" x2="803.606" y2="389.925"/>
			</g>
		</g>
	</g>
</g>
<g id="Layer_1_copy" display="none">
	<g display="inline">
		<path fill="#010101" d="M350.429,766.371h428.661V208.542H350.429V766.371z M360.469,218.582h408.581V756.33H360.469V218.582z"/>
		<circle fill="#010101" cx="564.761" cy="180.486" r="5.155"/>
		<path fill="#010101" d="M988.776,869.541c4.976-15.824,8.594-91.555,11.189-155.76c0.319-7.885,0.55-13.582,0.639-14.709
			c0.401-5.104,0.166-34.803-10.525-43.463c-4.697-3.807-10.564-6.705-15.055-8.594c-1.682-8.266-5.022-14.869-9.056-18.645
			c-3.313-3.104-7.587-6.424-12.109-9.941c-6.732-5.232-14.359-11.164-18.506-16.348c-3.455-4.316-20.423-24.736-38.169-45.137
			c-34.312-39.443-38.446-40.896-40.668-41.68c-8.215-2.889-23.204-1.812-33.872,0.314V163.212c0-12.42-10.104-22.524-22.524-22.524
			H329.396c-12.419,0-22.524,10.104-22.524,22.524v352.37c-10.667-2.127-25.656-3.201-33.87-0.314
			c-2.222,0.783-6.354,2.234-40.667,41.68c-17.758,20.414-34.718,40.824-38.168,45.137c-4.146,5.184-11.773,11.113-18.505,16.346
			c-4.524,3.52-8.798,6.84-12.109,9.943c-4.031,3.775-7.374,10.379-9.058,18.645c-4.489,1.889-10.356,4.789-15.057,8.596
			c-10.69,8.662-10.923,38.357-10.522,43.461c0.089,1.127,0.318,6.812,0.637,14.688c2.596,64.213,6.214,139.953,11.189,155.779
			c4.475,14.232-21.532,125.336-38.974,192.02l9.713,2.541c0.114-0.436,11.511-44.07,21.957-89.703
			c5.854-25.57,21.399-93.496,16.882-107.867c-5.214-16.584-9.37-119.393-10.735-153.174c-0.376-9.289-0.56-13.811-0.66-15.07
			c-0.645-8.188,1.325-30.41,6.833-34.873c2.271-1.838,4.953-3.443,7.563-4.785c-0.035,6.256,0.836,13.014,2.896,19.947l9.624-2.859
			c-2.327-7.838-2.829-15.152-2.273-21.41c0.439-0.148,0.721-0.234,0.757-0.248c0.001,0,0.003,0,0.004-0.002l-0.544-1.771
			c1.037-7.957,3.804-13.938,6.628-16.582c2.977-2.789,7.075-5.975,11.412-9.346c7.521-5.846,15.296-11.891,20.183-18
			c12.791-15.992,66.627-79.289,74.478-83.67c6.08-2.039,20.523-1.088,30.389,1.158v6.785c-7.231-1.508-13.61-0.506-19.009,3.008
			c-11.561,7.531-13.595,23.607-13.886,26.752c-0.393,4.254-5.106,18.812-8.894,30.508c-3.917,12.102-6.343,19.686-6.806,22.943
			c-0.459,3.217-1.821,11.613-3.921,22.357L243.62,626.22l-7.477,6.703l15.694,17.506c-0.896,4.156-1.876,8.469-2.93,12.826
			c-0.544,2.256-1.083,4.406-1.614,6.479l-21.094-0.971l-0.46,10.029l18.863,0.869c-6.039,21.047-11.082,30.459-14.489,34.652
			l7.791,6.332c18.093-22.264,30.198-102.592,30.312-103.393c0.366-2.57,3.583-12.502,6.419-21.264
			c0.944-2.916,1.828-5.658,2.653-8.238c4.021,2.953,21.456,6.303,31.088,6.303c1.467,0,2.751-0.078,3.78-0.246
			c1.001-0.162,4.053-0.662,5.715-3.285c1.249-1.969,2.745-5.318,4.198-9.271c0.656,10.459,0.611,23.727-0.494,40.555
			c-0.11,1.666-0.197,2.982-0.236,3.869c-0.355,7.73-2.148,19.664-4.047,32.303c-3.369,22.436-6.854,45.635-4.489,57.348
			c0.516,2.559,0.995,4.889,1.442,7.049c4.355,21.123,5.262,25.52,3.645,70.863c-1.886,52.834-48.05,85.684-65.43,98.051
			c-2.436,1.734-4.357,3.102-5.734,4.203l6.273,7.84c1.154-0.926,2.978-2.221,5.282-3.861c1.105-0.787,2.325-1.654,3.631-2.596
			l-20.052,167.871l9.969,1.191l21.199-177.469c14.793-11.811,33.664-29.84,45.008-54.244H811.48
			c11.343,24.402,30.214,42.432,45.009,54.242l21.197,177.471l9.969-1.191l-20.053-167.875c1.308,0.943,2.528,1.812,3.633,2.6
			c2.308,1.641,4.128,2.939,5.283,3.861l6.272-7.84c-1.377-1.104-3.3-2.469-5.733-4.203c-17.38-12.367-63.546-45.217-65.431-98.051
			c-1.619-45.344-0.713-49.736,3.645-70.859c0.445-2.162,0.927-4.492,1.443-7.053c2.361-11.713-1.122-34.91-4.491-57.346
			c-1.897-12.639-3.69-24.572-4.045-32.305c-0.041-0.887-0.128-2.201-0.236-3.867c-1.106-16.828-1.152-30.098-0.498-40.557
			c1.456,3.953,2.953,7.303,4.2,9.271c1.665,2.625,4.716,3.123,5.716,3.285c1.03,0.168,2.314,0.246,3.779,0.246
			c9.632,0,27.069-3.35,31.09-6.303c0.824,2.58,1.709,5.32,2.652,8.236c2.837,8.764,6.053,18.693,6.42,21.266
			c0.114,0.801,12.218,81.129,30.312,103.393l7.792-6.33c-3.41-4.195-8.453-13.607-14.491-34.654l18.863-0.869l-0.461-10.029
			l-21.094,0.971c-0.531-2.072-1.07-4.223-1.617-6.479c-1.053-4.355-2.031-8.668-2.928-12.826l15.695-17.506l-7.477-6.703
			l-10.736,11.979c-2.101-10.744-3.463-19.143-3.919-22.357c-0.466-3.26-2.89-10.844-6.809-22.945
			c-3.787-11.695-8.502-26.252-8.894-30.506c-0.291-3.145-2.324-19.221-13.886-26.752c-5.396-3.514-11.777-4.516-19.012-3.008
			v-6.785c9.867-2.244,24.31-3.197,30.392-1.158c7.844,4.383,61.684,67.678,74.478,83.672c4.888,6.107,12.663,12.152,20.184,17.998
			c4.336,3.371,8.433,6.557,11.409,9.346c2.825,2.645,5.593,8.627,6.63,16.588l-0.541,1.768c0.017,0.006,0.302,0.096,0.758,0.248
			c0.556,6.258,0.058,13.572-2.273,21.41l9.622,2.859c2.062-6.936,2.932-13.695,2.898-19.953c2.604,1.34,5.284,2.945,7.561,4.789
			c5.51,4.465,7.479,26.689,6.836,34.875c-0.099,1.262-0.285,5.789-0.661,15.09c-1.364,33.779-5.521,136.574-10.733,153.154
			c-4.52,14.371,11.027,82.297,16.881,107.867c10.444,45.633,21.842,89.27,21.957,89.705l9.713-2.541
			C1010.308,994.875,984.301,883.773,988.776,869.541z M310.047,584.001c-4.993,0.648-20.955-2.197-25.909-3.969
			c-0.583-4.002,0.356-15.598,1.76-25.283c1.466-4.146,3.834-8.346,7.446-10.699c3.864-2.516,8.75-2.73,14.928-0.654
			c2.977,0.998,6.723,4.133,9.623,12.725C317.728,562.718,313.229,577.937,310.047,584.001z M806.872,713.339
			c-0.514,2.543-0.99,4.861-1.434,7.012c-4.449,21.572-5.506,26.697-3.846,73.242c0.394,11.029,2.51,21.219,5.79,30.59H322.136
			c3.279-9.371,5.396-19.561,5.789-30.59c1.661-46.547,0.604-51.672-3.845-73.246c-0.443-2.148-0.92-4.465-1.435-7.008
			c-2.015-9.982,1.487-33.299,4.578-53.871c1.938-12.898,3.768-25.086,4.146-33.332c0.04-0.844,0.122-2.092,0.227-3.672
			c1.456-22.158,2.116-49.377-3.689-67.979c-0.002-0.029-0.002-0.062-0.004-0.096l-0.024,0.002
			c-2.41-7.682-5.932-13.883-10.965-17.635V163.212c0-6.884,5.601-12.484,12.483-12.484H800.12c6.888,0,12.484,5.6,12.484,12.484
			v373.547c-5.034,3.752-8.553,9.949-10.964,17.635l-0.022-0.002c-0.004,0.027-0.004,0.061-0.006,0.09
			c-5.808,18.6-5.146,45.824-3.688,67.986c0.103,1.578,0.186,2.824,0.224,3.668c0.379,8.246,2.209,20.436,4.146,33.336
			C805.385,680.041,808.885,703.357,806.872,713.339z M836.177,544.05c3.61,2.355,5.98,6.555,7.443,10.699
			c1.405,9.693,2.348,21.303,1.76,25.293c-5.147,1.904-21.088,4.539-25.913,3.953c-3.183-6.07-7.678-21.283-7.842-27.877
			c2.9-8.592,6.646-11.725,9.619-12.723C827.427,541.32,832.31,541.535,836.177,544.05z"/>
	</g>
</g>
<g id="Layer_3" display="none">
	<g display="inline">
		<line fill="none" stroke="#231F20" stroke-width="7" x1="144.771" y1="453.8" x2="462.327" y2="453.8"/>
		<path fill="none" stroke="#231F20" stroke-width="7" d="M474.137,281.242V11.991c0-6.495-5.314-11.809-11.811-11.809H144.771
			c-6.494,0-11.81,5.314-11.81,8.809v272.251"/>
	</g>
	<rect x="162.347" y="39.929" display="inline" fill="none" stroke="#231F20" stroke-width="7" width="282.407" height="375.615"/>
	<circle display="inline" fill="#231F20" cx="303.55" cy="19.64" r="3.477"/>
	<g display="inline">
		<g>
			<path fill="none" stroke="#231F20" stroke-width="7" d="M498.801,515.941c0,0,10.886,167.256,15.691,190.668"/>
			<path fill="none" stroke="#231F20" stroke-width="7" d="M567.77,350.56c0,0,8.239,2.523,13.665,6.916
				c5.421,4.396,6.221,21.766,5.853,26.424c-0.366,4.66,2.608,6.266,2.849,11.477c0.241,5.211-8.712,113.549-8.84,123.422
				c0,0,34.939,168.994,42.187,187.812"/>
			<path fill="none" stroke="#231F20" stroke-width="7" d="M475.629,262.983c6.717-0.43,17.687-1,20.098-0.307
				c5.482,1.576,41.655,57.943,46.582,64.103c4.924,6.154,16.139,10.281,20.981,14.703c4.849,4.418,13.117,20.287,9.099,33.816"/>
			<path fill="none" stroke="#231F20" stroke-width="7" d="M512.07,526.937c0,0-51.361-31.039-52.986-79.125
				c-1.631-48.088,1.271-35.453,5.054-54.199c3.783-18.74-3.811-45.084-4.129-52.031c-0.317-6.949-2.337-55.958,13.661-61.333
				c16.002-5.377,23.694,10.52,23.381,16.337c-0.312,5.814,8.305,34.211,8.518,38.844c0.213,4.631,7.131,54.217,17.586,67.082"/>
			<path fill="none" stroke="#231F20" stroke-width="7" d="M525.617,380.347"/>
			<path fill="none" stroke="#231F20" stroke-width="7" d="M509.845,365.404"/>
			<path fill="none" stroke="#231F20" stroke-width="7" d="M495.6,290.267c0,0,0.93,20.268-1.964,20.398
				c-2.896,0.131-20.95,5.221-22.504,2.773c-2.501-3.947-6.588-17.105-6.246-22.344"/>
			<line fill="none" stroke="#231F20" stroke-width="7" x1="530.271" y1="367.949" x2="512.898" y2="368.748"/>
			<line fill="none" stroke="#231F20" stroke-width="7" x1="512.829" y1="329.291" x2="506.121" y2="334.82"/>
		</g>
		<g>
			<path fill="none" stroke="#231F20" stroke-width="7" d="M108.301,515.941c0,0-10.886,167.256-15.691,190.668"/>
			<path fill="none" stroke="#231F20" stroke-width="7" d="M39.331,350.56c0,0-8.239,2.523-13.665,6.916
				c-5.421,4.396-6.221,21.766-5.853,26.424c0.367,4.66-2.608,6.266-2.849,11.477s8.713,113.549,8.841,123.422
				c0,0-34.94,168.994-42.188,187.812"/>
			<path fill="none" stroke="#231F20" stroke-width="7" d="M131.473,262.983c-6.718-0.43-17.688-1-20.099-0.307
				c-5.482,1.576-41.654,57.943-46.582,64.103c-4.924,6.154-16.139,10.281-20.981,14.703c-4.849,4.418-13.117,20.287-9.099,33.816"
				/>
			<path fill="none" stroke="#231F20" stroke-width="7" d="M95.03,526.937c0,0,51.362-31.039,52.987-79.125
				c1.63-48.088-1.272-35.453-5.055-54.199c-3.782-18.74,3.811-45.084,4.129-52.031c0.317-6.949,2.338-55.958-13.66-61.333
				c-16.002-5.377-23.695,10.52-23.382,16.337c0.312,5.814-8.305,34.211-8.518,38.844c-0.213,4.631-7.131,54.217-17.586,67.082"/>
			<path fill="none" stroke="#231F20" stroke-width="7" d="M81.483,380.347"/>
			<path fill="none" stroke="#231F20" stroke-width="7" d="M97.256,365.404"/>
			<path fill="none" stroke="#231F20" stroke-width="7" d="M111.501,290.267c0,0-0.93,20.268,1.964,20.398
				c2.896,0.131,20.95,5.221,22.505,2.773c2.501-3.947,6.588-17.105,6.245-22.344"/>
			<line fill="none" stroke="#231F20" stroke-width="7" x1="76.83" y1="367.949" x2="94.202" y2="368.748"/>
			<line fill="none" stroke="#231F20" stroke-width="7" x1="94.271" y1="329.291" x2="100.979" y2="334.82"/>
		</g>
	</g>
</g>
<g id="Layer_3_copy_2" display="none">
	<rect x="-101.133" y="-42.064" display="inline" width="754.667" height="827.333"/>
	<g display="inline">
		<g>
			<g>
				<g>
					
						<rect x="144.935" y="449.561" transform="matrix(-1 -0.0087 0.0087 -1 603.4837 908.7461)" fill="#FFFFFF" width="317.569" height="6.998"/>
				</g>
			</g>
			<g>
				<g>
					<path fill="#FFFFFF" d="M479.264,284.019l-7-0.062l2.323-266.241c0.04-4.582-3.655-8.341-8.236-8.381L148.808,6.564
						c-4.825-0.042-8.329,3.953-8.354,5.237l-2.35,269.24l-7-0.062l2.35-269.24c0.059-6.628,8.524-12.235,15.415-12.175
						l317.544,2.771c8.441,0.074,15.249,7.001,15.176,15.442L479.264,284.019z"/>
				</g>
			</g>
		</g>
		<g>
			<g>
				<path fill="#FFFFFF" d="M448.697,419.558l-289.396-2.523l3.296-377.602l289.396,2.525L448.697,419.558z M166.362,410.095
					l275.396,2.402l3.173-363.602l-275.396-2.403L166.362,410.095z"/>
			</g>
		</g>
		<g>
			<circle fill="#FFFFFF" cx="307.441" cy="23.906" r="3.477"/>
		</g>
		<g>
			<g>
				<g>
					<g>
						<path fill="#FFFFFF" d="M508.989,708.365c-4.596-23.422-13.702-184.432-14.088-191.273l6.989-0.395
							c0.094,1.67,9.465,167.369,13.968,190.318L508.989,708.365z"/>
					</g>
				</g>
				<g>
					<g>
						<path fill="#FFFFFF" d="M618.133,709.871c-7.103-18.932-39.333-181.799-40.703-188.725l-0.073-0.371l0.009-0.383
							c0.109-5.023,2.529-33.307,5.091-63.252c2.299-26.865,4.903-57.314,4.827-59.883c-0.068-1.84-0.604-3.068-1.225-4.492
							c-0.803-1.842-1.801-4.135-1.512-7.443c0.543-6.18-0.963-20.66-4.363-23.467c-4.805-3.961-12.355-6.373-12.432-6.398
							l2.108-6.674c0.363,0.113,8.933,2.855,14.776,7.672c7.202,5.945,7.185,26.031,6.882,29.479
							c-0.135,1.533,0.276,2.477,0.956,4.035c0.751,1.723,1.685,3.865,1.802,7.029c0.101,2.643-1.766,24.709-4.848,60.74
							c-2.384,27.863-4.847,56.654-5.056,62.438c1.793,9.055,33.572,169.27,40.312,187.236L618.133,709.871z"/>
					</g>
				</g>
				<g>
					<g>
						<path fill="#FFFFFF" d="M576.556,377.925l-6.693-2.053c3.81-12.42-4.164-26.896-7.836-30.303
							c-1.703-1.58-4.613-3.289-7.692-5.1c-4.81-2.826-10.262-6.025-13.532-10.191c-1.525-1.939-5.479-7.912-10.949-16.178
							c-9.477-14.319-29.078-41.907-33.544-45.174c-0.865-0.133-4.644-0.466-18.7,0.31l-0.386-6.989
							c17.928-0.99,20.371-0.265,21.289,0.008c3.985,1.183,11.99,9.927,37.178,47.982c4.974,7.514,9.267,14,10.615,15.717
							c2.455,3.125,7.299,5.969,11.573,8.479c3.419,2.01,6.649,3.906,8.909,6.006C572.728,345.949,581.073,363.187,576.556,377.925z
							"/>
					</g>
				</g>
				<g>
					<g>
						<path fill="#FFFFFF" d="M509.734,530.984c-0.538-0.332-13.326-8.283-26.421-22.352c-17.5-18.801-27.021-39.592-27.536-60.125
							c-0.885-35.172,0.401-38.67,2.736-45.02c0.845-2.299,1.802-4.902,2.865-9.945c2.748-13.023-0.297-30.137-2.311-41.461
							c-0.789-4.438-1.359-7.645-1.438-9.752c-0.24-6.488-0.429-19.244,1.005-31.777c2.222-19.431,7.308-28.19,15.585-30.891
							c8.898-2.905,15.215-0.073,18.941,2.815c5.944,4.604,9.197,10.397,8.893,15.271c-0.176,2.812,2.779,14.758,4.735,22.663
							c2.146,8.674,3.364,13.688,3.446,15.904c0.188,5.031,6.78,53.332,16.238,65.182l-5.471,4.365
							c-11.492-14.396-17.638-65.916-17.763-69.285c-0.06-1.605-1.752-8.447-3.246-14.484c-3.123-12.623-5.153-21.167-4.928-24.781
							c0.14-2.231-1.803-7.914-6.173-11.3c-3.479-2.692-7.695-1.265-12.502,0.306c-8.225,2.684-12.943,23.895-11.768,55.756
							c0.061,1.619,0.651,4.939,1.334,8.785c2.109,11.857,5.297,29.777,2.268,44.133c-1.167,5.537-2.264,8.518-3.145,10.912
							c-2.036,5.543-3.158,8.596-2.308,42.43c1.142,45.598,50.139,76.389,50.634,76.695L509.734,530.984z"/>
					</g>
				</g>
				<g>
					<g>
						<path fill="#FFFFFF" d="M526.396,381.539"/>
					</g>
				</g>
				<g>
					<g>
						<path fill="#FFFFFF" d="M510.755,366.458"/>
					</g>
				</g>
				<g>
					<g>
						<path fill="#FFFFFF" d="M475.053,318.337c-2.823-0.025-4.529-0.727-5.528-2.33c-2.686-4.322-7.027-18.329-6.57-24.505
							l6.981,0.517c-0.288,3.88,2.792,14.891,5.013,19.346c2.832,0.1,10.241-1.463,13.598-2.16c1.973-0.41,3.418-0.707,4.5-0.895
							c0.651-2.949,0.857-10.625,0.623-16.98l6.994-0.26c0.009,0.213,0.191,5.253,0.016,10.398
							c-0.251,7.344-0.84,13.438-5.526,13.609c-0.616,0.031-3.147,0.557-5.183,0.979
							C483.079,317.488,478.318,318.365,475.053,318.337z"/>
					</g>
				</g>
				<g>
					<g>
						
							<rect x="518.983" y="360.813" transform="matrix(-0.0373 -0.9993 0.9993 -0.0373 172.695 905.3936)" fill="#FFFFFF" width="6.999" height="17.39"/>
					</g>
				</g>
				<g>
					<g>
						
							<rect x="507.185" y="328.768" transform="matrix(-0.6293 -0.7772 0.7772 -0.6293 573.1851 939.6292)" fill="#FFFFFF" width="7.002" height="8.694"/>
					</g>
				</g>
			</g>
			<g>
				<g>
					<g>
						<path fill="#FFFFFF" d="M93.979,704.744l-6.846-1.469c4.904-22.869,17.164-188.379,17.287-190.049l6.981,0.518
							C110.897,520.58,98.982,681.406,93.979,704.744z"/>
					</g>
				</g>
				<g>
					<g>
						<path fill="#FFFFFF" d="M-15.174,704.343l-6.51-2.572c7.052-17.848,41.623-177.48,43.575-186.502
							c-0.108-5.787-2.068-34.615-3.966-62.518c-2.453-36.078-3.933-58.176-3.786-60.816c0.172-3.16,1.145-5.285,1.924-6.994
							c0.707-1.549,1.134-2.484,1.025-4.02c-0.241-3.453,0.091-23.537,7.396-29.354c5.929-4.717,14.545-7.309,14.909-7.416
							l1.992,6.711c-0.179,0.055-7.727,2.352-12.543,6.184c-3.446,2.744-5.204,17.197-4.77,23.385
							c0.232,3.314-0.807,5.588-1.642,7.416c-0.646,1.412-1.202,2.631-1.304,4.471c-0.121,2.564,1.953,33.057,3.782,59.959
							c2.039,29.982,3.964,58.305,3.985,63.33l0.001,0.381l-0.08,0.373C27.327,523.259-7.744,685.539-15.174,704.343z
							 M41.384,350.863l-0.995-3.354l0.998,3.354C41.386,350.863,41.385,350.863,41.384,350.863L41.384,350.863z"/>
					</g>
				</g>
				<g>
					<g>
						<path fill="#FFFFFF" d="M32.19,373.175c-4.26-14.812,4.385-31.906,10.421-37.312c2.294-2.059,5.558-3.898,9.012-5.848
							c4.317-2.436,9.211-5.195,11.719-8.275c1.38-1.693,5.786-8.104,10.889-15.529c25.848-37.608,34.005-46.211,38.011-47.326
							c0.923-0.256,3.378-0.938,21.286,0.364l-0.508,6.981c-13.995-1.018-17.798-0.755-18.694-0.634
							c-4.527,3.198-24.6,30.432-34.325,44.581c-5.614,8.168-9.671,14.07-11.229,15.982c-3.343,4.105-8.851,7.213-13.708,9.953
							c-3.111,1.756-6.051,3.414-7.779,4.963c-3.733,3.344-11.957,17.68-8.365,30.164L32.19,373.175z"/>
					</g>
				</g>
				<g>
					<g>
						<path fill="#FFFFFF" d="M96.33,527.376l-3.569-6.021c0.5-0.299,50.025-30.229,51.965-75.799
							c1.44-33.814,0.373-36.889-1.566-42.463c-0.839-2.412-1.883-5.412-2.954-10.969c-2.777-14.404,0.723-32.266,3.037-44.084
							c0.75-3.834,1.399-7.145,1.488-8.764c1.731-31.834-2.615-53.123-10.792-55.951c-4.778-1.653-8.972-3.154-12.495-0.523
							c-4.429,3.309-6.471,8.957-6.37,11.189c0.163,3.62-2.017,12.128-5.359,24.693c-1.599,6.012-3.411,12.822-3.5,14.426
							c-0.184,3.365-7.227,54.771-18.968,68.965l-5.394-4.461c9.663-11.682,17.098-59.859,17.373-64.889
							c0.121-2.213,1.426-7.207,3.724-15.842c2.094-7.869,5.257-19.762,5.13-22.576c-0.221-4.878,3.133-10.613,9.157-15.113
							c3.778-2.823,10.138-5.544,18.988-2.484c8.229,2.845,13.161,11.691,15.044,31.16c1.213,12.557,0.803,25.305,0.451,31.789
							c-0.116,2.105-0.742,5.303-1.609,9.727c-2.211,11.287-5.553,28.344-3.033,41.414c0.976,5.061,1.887,7.68,2.691,9.992
							c2.223,6.391,3.447,9.91,1.95,45.061c-0.873,20.521-10.757,41.145-28.582,59.637
							C109.798,519.328,96.874,527.054,96.33,527.376z"/>
					</g>
				</g>
				<g>
					<g>
						<path fill="#FFFFFF" d="M82.279,377.664"/>
					</g>
				</g>
				<g>
					<g>
						<path fill="#FFFFFF" d="M98.181,362.859"/>
					</g>
				</g>
				<g>
					<g>
						<path fill="#FFFFFF" d="M134.715,315.367c-3.266-0.029-8.01-0.988-14.873-2.539c-2.026-0.459-4.55-1.027-5.169-1.07
							c-4.678-0.254-5.16-6.356-5.283-13.702c-0.086-5.149,0.186-10.186,0.196-10.397l6.99,0.381
							c-0.347,6.352-0.272,14.029,0.326,16.99c1.078,0.204,2.517,0.526,4.483,0.973c3.343,0.754,10.763,2.469,13.558,2.395
							c2.297-4.411,5.569-15.368,5.35-19.252l6.989-0.396c0.349,6.183-4.235,20.113-6.995,24.384
							C139.258,314.72,137.539,315.392,134.715,315.367z"/>
					</g>
				</g>
				<g>
					<g>
						
							<rect x="77.735" y="362.194" transform="matrix(-0.9985 -0.0546 0.0546 -0.9985 152.7711 735.5602)" fill="#FFFFFF" width="17.39" height="7.001"/>
					</g>
				</g>
				<g>
					<g>
						
							<rect x="94.49" y="326.03" transform="matrix(-0.766 -0.6428 0.6428 -0.766 -37.2726 645.4932)" fill="#FFFFFF" width="8.693" height="7"/>
					</g>
				</g>
			</g>
		</g>
		<g>
			
				<rect x="-67.817" y="603.903" transform="matrix(1 0.0087 -0.0087 1 6.7233 -3.336)" fill="#FFFFFF" width="909.369" height="334.679"/>
		</g>
	</g>
</g>
<g id="Layer_3_copy_3" display="none">
	<g display="inline">
		<g>
			<g>
				<polygon points="463.216,460.75 145.659,460.75 145.656,453.619 463.213,453.619 				"/>
			</g>
		</g>
		<g>
			<g>
				<path d="M480.453,286.555l-6.999,0.002V13.306c-0.002-4.582-1.841-6.243-6.423-6.241H140.475
					c-4.825,0.003-5.183,3.095-5.196,5.378v272.251l-7,0.002V12.447C128.275,4.817,133.581,0.003,140.471,0h326.557
					c8.441-0.003,13.421,4.861,13.425,13.303V286.555z"/>
			</g>
		</g>
	</g>
	<g display="inline">
		<g>
			<path d="M449.147,420.744H159.741l-0.156-382.738h289.408L449.147,420.744z M166.737,413.626h275.407l-0.149-368.618H166.588
				L166.737,413.626z"/>
		</g>
	</g>
	<g display="inline">
		<circle cx="304.366" cy="23.65" r="3.478"/>
	</g>
	<path display="inline" d="M27.481,377.419c-4.396-14.773,4.093-31.945,10.08-37.404c2.274-2.08,5.521-3.949,8.958-5.93
		c4.294-2.475,9.164-5.281,11.643-8.383c1.363-1.705,5.711-8.156,10.746-15.627c25.503-37.845,33.581-45.521,37.577-46.671
		c2.8-0.805,9.362-0.842,25.288,0.17l-0.444,6.984c-14.003-0.889-21.805-0.592-22.7-0.463c-4.497,3.239-24.319,29.655-33.915,43.895
		c-5.54,8.219-9.543,14.156-11.083,16.084c-3.306,4.137-8.783,7.295-13.616,10.078c-3.097,1.785-6.02,3.469-7.733,5.035
		c-3.702,3.377-11.795,17.785-8.089,30.238L27.481,377.419z"/>
	<path display="inline" d="M93.028,531.029l-3.625-5.988c0.498-0.303,49.747-30.684,51.27-76.271
		c1.133-33.826,0.036-36.889-1.954-42.447c-0.861-2.402-1.934-5.393-3.055-10.939c-2.909-14.379,0.427-32.27,2.634-44.109
		c0.716-3.84,1.333-7.154,1.408-8.775c1.441-31.849-3.1-53.098-11.302-55.851c-4.793-1.609-9-2.072-12.5,0.591
		c-4.398,3.349-6.388,8.016-6.267,10.247c0.194,3.619-1.906,12.146-5.134,24.741c-1.544,6.025-3.294,12.854-3.366,14.457
		c-0.154,3.367-6.727,54.838-18.338,69.135l-5.435-4.41c9.556-11.77,16.55-60.016,16.779-65.043
		c0.101-2.215,1.359-7.221,3.579-15.875c2.021-7.891,4.438-19.849,4.924-22.624c1.331-7.601,3.035-10.642,9.019-15.196
		c3.751-2.858,10.086-5.637,18.965-2.659c8.256,2.77,13.269,11.571,15.327,31.021c1.329,12.545,1.034,25.295,0.742,31.783
		c-0.096,2.107-0.693,5.309-1.52,9.74c-2.108,11.309-5.293,28.395-2.655,41.439c1.021,5.051,1.957,7.664,2.784,9.969
		c2.28,6.369,3.538,9.877,2.359,45.039c-0.685,20.529-10.379,41.242-28.035,59.896C106.422,522.857,93.568,530.701,93.028,531.029z"
		/>
	<path display="inline" d="M77.609,381.449"/>
	<path display="inline" d="M93.375,366.5"/>
	<path display="inline" d="M129.474,318.675c-3.267,0.002-8.02-0.914-14.896-2.402c-2.031-0.439-4.558-0.986-5.178-1.023
		c-4.681-0.211-5.218-6.309-5.409-13.652c-0.161-6.219,1.1-10.351,1.103-10.399l5.993,0.317c-0.289,6.355-0.145,14.031,0.48,16.986
		c1.081,0.194,2.521,0.504,4.492,0.932c3.349,0.725,10.784,2.371,13.579,2.271c2.256-4.435,5.428-15.42,5.173-19.303l6.984-0.459
		c0.405,6.179-4.052,20.15-6.771,24.445C134.011,317.988,132.298,318.675,129.474,318.675z"/>
	
		<rect x="72.96" y="365.96" transform="matrix(-0.999 -0.0455 0.0455 -0.999 146.423 742.2506)" display="inline" width="17.391" height="6.999"/>
	<polygon display="inline" points="93.861,341.615 85.151,336.087 88.602,330.685 98.312,336.212 	"/>
	<path display="inline" d="M581.25,377.419c4.396-14.773-4.093-31.945-10.08-37.404c-2.273-2.08-5.521-3.949-8.957-5.93
		c-4.295-2.475-9.164-5.281-11.644-8.383c-1.362-1.705-5.711-8.156-10.746-15.627c-25.503-37.845-33.581-45.521-37.577-46.671
		c-0.921-0.265-7.369-0.969-25.287,0.17l0.443,6.984c14.003-0.889,21.805-0.592,22.7-0.463c4.497,3.239,24.32,29.655,33.915,43.895
		c5.54,8.219,9.543,14.156,11.083,16.084c3.307,4.137,8.783,7.295,13.617,10.078c3.096,1.785,6.018,3.469,7.731,5.035
		c3.703,3.377,11.795,17.785,8.091,30.238L581.25,377.419z"/>
	<path display="inline" d="M515.704,531.029l3.625-5.988c-0.498-0.303-49.748-30.684-51.271-76.271
		c-1.132-33.826-0.036-36.889,1.955-42.447c0.86-2.402,1.933-5.393,3.054-10.939c2.909-14.379-0.427-32.27-2.634-44.109
		c-0.715-3.84-1.333-7.154-1.408-8.775c-1.441-31.849,3.1-53.098,11.302-55.851c4.793-1.609,9-2.072,12.5,0.591
		c4.398,3.349,6.389,8.016,6.268,10.247c-0.195,3.619,1.905,12.146,5.133,24.741c1.544,6.025,3.294,12.854,3.367,14.457
		c0.153,3.367,6.727,54.838,18.337,69.135l5.435-4.41c-9.556-11.77-16.549-60.016-16.778-65.043
		c-0.102-2.215-1.359-7.221-3.578-15.875c-2.022-7.891-4.438-19.849-4.924-22.624c-1.331-7.601-3.035-10.642-9.02-15.196
		c-3.751-2.858-10.086-5.637-18.965-2.659c-8.255,2.77-13.269,11.571-15.327,31.021c-1.329,12.545-1.034,25.295-0.742,31.783
		c0.097,2.107,0.693,5.309,1.521,9.74c2.107,11.309,5.293,28.395,2.654,41.439c-1.021,5.051-1.957,7.664-2.783,9.969
		c-2.281,6.369-3.538,9.877-2.36,45.039c0.685,20.529,10.379,41.242,28.035,59.896C502.309,522.857,515.163,530.701,515.704,531.029
		z"/>
	<path display="inline" d="M531.122,381.449"/>
	<path display="inline" d="M515.356,366.5"/>
	<path display="inline" d="M479.258,318.675c3.266,0.002,8.019-0.914,14.896-2.402c2.031-0.439,4.559-0.986,5.178-1.023
		c4.682-0.211,5.219-6.309,5.409-13.652c0.161-6.219-1.1-10.351-1.102-10.399l-5.994,0.317c0.289,6.355,0.145,14.031-0.48,16.986
		c-1.08,0.194-2.521,0.504-4.491,0.932c-3.35,0.725-10.784,2.371-13.579,2.271c-2.256-4.435-5.429-15.42-5.173-19.303l-6.985-0.459
		c-0.405,6.179,4.052,20.15,6.771,24.445C474.72,317.988,476.434,318.675,479.258,318.675z"/>
	
		<rect x="518.395" y="365.913" transform="matrix(0.999 -0.0455 0.0455 0.999 -16.2569 24.3565)" display="inline" width="17.391" height="6.999"/>
	<polygon display="inline" points="514.87,341.615 523.581,336.087 520.131,330.685 510.42,336.212 	"/>
	<g display="inline">
		<polygon points="573.286,351.679 572.26,355.025 572.261,355.025 		"/>
		<path d="M589.302,384.75c-0.265,3.311,0.756,5.596,1.574,7.432c0.631,1.418,1.178,2.641,1.262,4.48
			c0.098,2.564-2.254,33.037-4.33,59.922c-2.312,29.965-4.496,58.266-4.564,63.291l-0.004,0.381l0.076,0.373
			c0.693,3.363,9.006,43.602,18.191,86.199l7.17-0.004c-9.133-42.322-17.513-82.805-18.427-87.225
			c0.16-5.785,2.384-34.596,4.535-62.479c2.785-36.053,4.465-58.137,4.344-60.777c-0.145-3.162-1.096-5.299-1.86-7.014
			c-0.691-1.553-1.111-2.492-0.988-4.027c0.273-3.451,0.125-23.537-7.125-29.42c-5.887-4.77-14.479-7.438-14.842-7.551l-2.053,6.691
			c0.178,0.057,7.703,2.422,12.485,6.297C588.168,364.097,589.795,378.566,589.302,384.75z"/>
	</g>
	<path display="inline" d="M514.014,606.863c-3.383-45.551-6.216-89.203-6.271-90.059l-6.985,0.453
		c0.221,3.426,2.951,45.512,6.226,89.607L514.014,606.863z"/>
	<path display="inline" d="M101.737,607.033c3.279-44.156,6.016-86.346,6.238-89.775l-6.986-0.451
		c-0.055,0.854-2.895,44.617-6.285,90.23L101.737,607.033z"/>
	<path display="inline" d="M18.48,519.601c-0.915,4.428-9.327,45.062-18.48,87.475l7.171-0.004
		C16.378,564.384,24.72,524,25.415,520.63l0.077-0.373l-0.004-0.381c-0.067-5.025-2.251-33.328-4.564-63.291
		c-2.074-26.885-4.428-57.357-4.328-59.924c0.084-1.84,0.629-3.062,1.261-4.48c0.817-1.834,1.837-4.119,1.574-7.43
		c-0.492-6.186,1.134-20.652,4.555-23.43c4.782-3.875,12.308-6.24,12.486-6.297c0.001,0,0.002,0,0.002,0l-0.97-3.152l-1.086-3.539
		c-0.361,0.111-8.956,2.781-14.841,7.551c-7.25,5.883-7.398,25.969-7.125,29.42c0.122,1.535-0.297,2.475-0.989,4.027
		c-0.765,1.715-1.717,3.852-1.86,7.014c-0.122,2.643,1.559,24.727,4.343,60.777C16.097,485.005,18.32,513.814,18.48,519.601z"/>
</g>
<g id="Layer_3_copy">
	<g>
		<line fill="none" stroke="#231F20" stroke-width="6" x1="146.252" y1="455.8" x2="463.808" y2="455.8"/>
		<path fill="none" stroke="#231F20" stroke-width="6" d="M475.617,288.242V14.809c0-6.495-5.313-11.809-11.81-11.809H146.252
			c-6.495,0-11.809,5.314-11.809,11.809v271.433"/>
	</g>
	<rect x="164.42" y="42.747" fill="none" stroke="#231F20" stroke-width="6" width="282.407" height="374.797"/>
	<circle fill="#231F20" cx="305.138" cy="22.458" r="3.477"/>
	<path fill="none" stroke="#231F20" stroke-width="6" d="M111.402,517.941c0,0-13.886,167.256-18.692,190.668"/>
	<path fill="none" stroke="#231F20" stroke-width="6" d="M39.433,352.56c0,0-8.239,2.523-13.664,6.916
		c-5.424,4.396-6.222,21.766-5.854,26.424c0.367,4.66-2.608,6.266-2.847,11.477c-0.24,5.211,8.713,113.549,8.841,123.422
		c0,0-34.941,168.994-42.188,187.812"/>
	<path fill="none" stroke="#231F20" stroke-width="6" d="M131.574,274.983c-6.716-0.43-17.686-1-20.097-0.307
		c-5.485,1.576-41.657,47.943-46.583,54.103c-4.925,6.154-16.14,10.281-20.983,14.703c-4.846,4.418-13.117,20.287-9.096,33.816"/>
	<path fill="none" stroke="#231F20" stroke-width="6" d="M98.131,528.937c0,0,48.362-31.039,49.989-79.125
		c1.627-48.088-1.273-35.453-5.055-54.199c-3.782-18.74,3.81-45.084,4.128-52.031c0.319-6.949,2.339-50.958-13.662-56.333
		c-16.001-5.377-23.693,10.52-23.381,16.337c0.313,5.814-8.303,29.211-8.515,33.844c-0.214,4.631-7.132,54.217-17.587,67.082"/>
	<path fill="none" stroke="#231F20" stroke-width="6" d="M81.585,382.347"/>
	<path fill="none" stroke="#231F20" stroke-width="6" d="M97.358,367.404"/>
	<path fill="none" stroke="#231F20" stroke-width="6" d="M111.602,297.267c0,0-0.931,20.268,1.965,20.398s20.952,5.221,22.504,2.773
		c2.501-3.947,6.587-17.105,6.247-22.344"/>
	<line fill="none" stroke="#231F20" stroke-width="6" x1="76.932" y1="369.949" x2="94.303" y2="370.748"/>
	<line fill="none" stroke="#231F20" stroke-width="6" x1="94.373" y1="331.291" x2="101.083" y2="336.82"/>
	<path fill="none" stroke="#231F20" stroke-width="6" d="M498.657,517.941c0,0,13.886,167.256,18.692,190.668"/>
	<path fill="none" stroke="#231F20" stroke-width="6" d="M570.628,352.56c0,0,8.238,2.523,13.665,6.916
		c5.421,4.396,6.221,21.766,5.853,26.424c-0.367,4.66,2.608,6.266,2.848,11.477c0.241,5.211-8.712,113.549-8.84,123.422
		c0,0,34.94,168.994,42.188,187.812"/>
	<path fill="none" stroke="#231F20" stroke-width="6" d="M478.485,274.983c6.717-0.43,17.688-1,20.099-0.307
		c5.482,1.576,41.654,47.943,46.581,54.103c4.925,6.154,16.14,10.281,20.982,14.703c4.848,4.418,13.117,20.287,9.098,33.816"/>
	<path fill="none" stroke="#231F20" stroke-width="6" d="M511.928,528.937c0,0-48.362-31.039-49.987-79.125
		c-1.63-48.088,1.272-35.453,5.054-54.199c3.783-18.74-3.81-45.084-4.129-52.031c-0.316-6.949-2.337-50.958,13.661-56.333
		c16.002-5.377,23.695,10.52,23.381,16.337c-0.312,5.814,8.306,29.211,8.519,33.844c0.213,4.631,7.131,54.217,17.586,67.082"/>
	<path fill="none" stroke="#231F20" stroke-width="6" d="M528.475,382.347"/>
	<path fill="none" stroke="#231F20" stroke-width="6" d="M512.702,367.404"/>
	<path fill="none" stroke="#231F20" stroke-width="6" d="M498.457,297.267c0,0,0.931,20.268-1.964,20.398
		c-2.896,0.131-20.95,5.221-22.504,2.773c-2.501-3.947-6.588-17.105-6.246-22.344"/>
	<line fill="none" stroke="#231F20" stroke-width="6" x1="533.129" y1="369.949" x2="515.757" y2="370.748"/>
	<line fill="none" stroke="#231F20" stroke-width="6" x1="515.687" y1="331.291" x2="508.979" y2="336.82"/>
</g>
<g id="Layer_4" display="none">
	<g display="inline">
		<path fill="#231F20" d="M349.312,766.14H781.12V207.261H349.312V766.14z M359.757,217.706h410.919v537.989H359.757V217.706z"/>
		<circle fill="#231F20" cx="564.493" cy="182.211" r="5.189"/>
		<path fill="#231F20" d="M986.025,914.494c0.236-8.631,3.537-51.619,6.73-93.221c4.13-53.801,6.624-86.748,6.441-90.689
			c-0.217-4.719-1.638-7.904-2.781-10.463c-1.032-2.32-1.658-3.719-1.479-6.008c0.406-5.15,0.173-35.119-10.653-43.895
			c-5.397-4.373-12.314-7.555-16.978-9.4c-3.077-6.314-6.7-11.385-9.859-14.264c-3.398-3.104-8.245-5.891-13.371-8.842
			c-6.41-3.689-13.676-7.873-17.379-12.502c-0.76-0.951-2.025-2.551-3.688-4.654c-54.908-69.438-64.122-76.58-68.447-77.824
			c-1.354-0.389-4.925-1.408-30.487,0.188V170.799c0-12.595-10.247-22.841-22.842-22.841H327.427
			c-12.597,0-22.842,10.246-22.842,22.841v372.123c-25.563-1.598-29.137-0.576-30.486-0.188
			c-4.332,1.244-13.553,8.391-68.487,77.873c-1.646,2.08-2.896,3.66-3.65,4.605c-3.704,4.627-10.969,8.811-17.379,12.5
			c-5.128,2.953-9.972,5.74-13.37,8.842c-3.158,2.879-6.78,7.949-9.859,14.264c-4.661,1.848-11.58,5.027-16.979,9.4
			c-10.816,8.768-11.06,38.742-10.653,43.893c0.18,2.291-0.443,3.689-1.479,6.01c-1.142,2.561-2.563,5.744-2.78,10.463
			c-0.181,3.938,2.312,36.852,6.438,90.588c3.197,41.652,6.502,84.688,6.737,93.32c-2.793,13.486-52.296,252.107-62.587,278.828
			l9.747,3.756c10.843-28.152,61.056-270.73,63.188-281.043l0.115-0.559l-0.008-0.566c-0.098-7.504-3.343-49.779-6.778-94.537
			c-3.077-40.068-6.564-85.486-6.417-89.309c0.125-2.744,0.94-4.57,1.885-6.688c1.221-2.738,2.741-6.141,2.353-11.082
			c-0.746-9.473,1.62-30.746,6.815-34.957c1.613-1.305,3.438-2.486,5.294-3.551c-2.218,8.818-2.785,18.498-0.087,27.572
			l10.011-2.975c-3.06-10.297-0.709-21.484,2.934-30.277c0.271-0.088,0.45-0.145,0.479-0.154c0.002,0,0.003,0,0.003,0l-0.176-0.574
			c2.881-6.719,6.469-11.939,8.847-14.105c2.559-2.334,6.922-4.846,11.542-7.508c7.212-4.15,15.388-8.854,20.323-15.025
			c0.764-0.955,2.026-2.555,3.688-4.652c47.554-60.146,60.134-72.494,63.352-74.344c1.038-0.178,6.229-0.695,27.43,0.643v6.771
			c-10.371-1.82-17.981,1.717-22.767,5.354c-8.93,6.789-13.863,18.375-13.472,25.656c0.218,4.025-4.226,18.766-7.167,28.521
			c-1.458,4.838-2.646,8.807-3.545,12.045l-4.293-3.537l-6.645,8.059l8.74,7.203c-0.72,6.725-3.255,24.049-7.1,42.34l-24.103-1.107
			l-0.479,10.432l22.28,1.023c-4.181,17.738-9.493,34.678-15.475,42.035l8.105,6.584c17.328-21.32,27.171-98.113,27.403-103.145
			c0.107-2.328,2.88-11.527,5.108-18.916c0.866-2.881,1.678-5.586,2.425-8.131c1.139,1.525,2.685,2.443,4.809,2.539
			c0.924,0.055,4.696,0.873,7.728,1.529c10.26,2.225,17.351,3.596,22.225,3.596c4.213,0,6.77-1.025,8.281-3.408
			c1.664-2.625,3.76-7.688,5.618-13.369c1.643,12.318,2.146,27.496,1.349,44.863c-0.112,2.42-1.036,7.367-2.106,13.1
			c-3.3,17.662-8.285,44.355-3.955,65.807c1.669,8.277,3.266,12.738,4.548,16.326c2.967,8.293,4.603,12.861,2.894,63.334
			c-2.303,68.098-71.491,113.391-72.188,113.838l2.822,4.395l2.82,4.396c0.675-0.434,4.727-3.076,10.642-7.725
			c-4.429,52.418-20.598,240.793-26.667,270.355l10.231,2.102c6.802-33.135,25.207-251.896,27.719-281.99
			c20.003-18.115,47.326-49.682,53.735-91.037h460.441c6.407,41.355,33.73,72.924,53.732,91.037
			c2.515,30.096,20.916,248.855,27.721,281.99l10.23-2.102c-6.069-29.562-22.237-217.938-26.667-270.355
			c5.914,4.646,9.966,7.291,10.641,7.725l5.643-8.791c-0.698-0.447-69.879-45.621-72.186-113.838
			c-1.711-50.471-0.076-55.039,2.892-63.334c1.283-3.586,2.881-8.049,4.549-16.326c4.332-21.453-0.656-48.146-3.956-65.812
			c-1.069-5.729-1.996-10.674-2.106-13.107c-0.792-17.355-0.287-32.525,1.354-44.84c1.858,5.68,3.954,10.738,5.618,13.365
			c1.512,2.381,4.066,3.404,8.278,3.404c4.873,0,11.965-1.371,22.225-3.596c3.03-0.656,6.802-1.475,7.721-1.527
			c2.127-0.098,3.673-1.016,4.812-2.541c0.749,2.543,1.56,5.25,2.427,8.131c2.229,7.389,5.003,16.588,5.109,18.918
			c0.23,5.027,10.07,81.814,27.401,103.143l8.106-6.584c-5.983-7.359-11.297-24.297-15.479-42.035l22.283-1.023l-0.479-10.432
			l-24.104,1.107c-3.842-18.291-6.379-35.613-7.096-42.338l8.739-7.205l-6.646-8.061l-4.291,3.539
			c-0.898-3.24-2.087-7.207-3.545-12.045c-2.941-9.756-7.386-24.496-7.17-28.52c0.393-7.277-4.536-18.863-13.465-25.654
			c-4.785-3.641-12.397-7.178-22.771-5.357v-6.771c21.295-1.348,26.438-0.814,27.425-0.646c3.207,1.844,15.768,14.164,63.317,74.299
			c1.681,2.125,2.957,3.74,3.726,4.701c4.938,6.172,13.11,10.877,20.324,15.029c4.618,2.658,8.984,5.17,11.543,7.508
			c2.377,2.166,5.969,7.385,8.85,14.104l-0.178,0.574c0.014,0.004,0.189,0.059,0.482,0.154c3.643,8.789,5.99,19.979,2.932,30.277
			l10.014,2.975c2.695-9.078,2.131-18.758-0.089-27.578c1.854,1.062,3.676,2.244,5.292,3.555c5.108,4.143,7.545,25.73,6.813,34.957
			c-0.39,4.941,1.131,8.348,2.354,11.084c0.942,2.117,1.759,3.941,1.885,6.686c0.146,3.83-3.344,49.295-6.422,89.41
			c-3.434,44.711-6.676,86.939-6.772,94.438l-0.008,0.566l0.115,0.559c2.134,10.312,52.344,252.891,63.185,281.043l9.748-3.756
			C1038.32,1166.601,988.819,927.978,986.025,914.494z M316.345,583.035c0.377,5.793-4.361,22.182-7.731,28.797
			c-4.159,0.133-15.262-2.316-20.259-3.4c-2.939-0.637-5.09-1.1-6.701-1.389c-0.895-4.223-1.124-14.904-0.759-24.127
			c1.541-3.18,3.937-6.576,7.248-9.094c5.221-3.971,11.495-4.768,18.643-2.363c3.958,1.328,7.306,5.312,9.969,11.549
			L316.345,583.035z M800.868,727.162c-1.521,7.535-2.915,11.434-4.146,14.873c-3.4,9.506-5.273,14.74-3.495,67.205
			c0.04,1.186,0.1,2.363,0.174,3.535H335.258c0.075-1.172,0.136-2.352,0.176-3.535c1.774-52.465-0.099-57.699-3.498-67.205
			c-1.23-3.439-2.625-7.338-4.146-14.873c-3.927-19.465,0.834-44.955,3.986-61.824c1.234-6.613,2.128-11.393,2.272-14.539
			c1.271-27.67,0.243-73.721-19.019-86.762V170.799c0-6.835,5.561-12.398,12.396-12.398h473.808c6.836,0,12.397,5.562,12.397,12.398
			v393.205c-11.087,7.451-21.651,29.219-19.021,86.797c0.145,3.145,1.037,7.92,2.272,14.531
			C800.034,682.201,804.8,707.695,800.868,727.162z M840.522,573.826c3.308,2.516,5.701,5.91,7.242,9.086
			c0.362,9.223,0.138,19.906-0.758,24.131c-1.61,0.289-3.765,0.752-6.702,1.391c-4.997,1.082-16.042,3.535-20.258,3.398
			c-3.371-6.617-8.109-23.004-7.731-28.795l-0.408-0.027c2.664-6.236,6.01-10.223,9.966-11.551
			C829.027,569.056,835.301,569.853,840.522,573.826z"/>
	</g>
</g>
</svg>
